<svg width="1000" height="1000" viewBox="0 0 1000 1000" fill="none" xmlns="http://www.w3.org/2000/svg">
<g clip-path="url(#clip0)">
<path d="M656.4 188.44V-358.38H906.9V260.12" stroke="#CCDDE2" stroke-width="4.82" stroke-miterlimit="10"/>
<path d="M681.301 8.00003V40H713.301V-18.72H681.301V8.00003ZM686.561 -13.48H708.001V8.00003H686.561V-13.48ZM686.561 13.25H708.001V34.75H686.561V13.25Z" fill="#D7E8F0"/>
<path d="M737.721 8.00003V40H769.721V-18.72H737.721V8.00003ZM743.001 -13.46H764.481V8.00003H743.001V-13.46ZM743.001 13.27H764.481V34.75H743.001V13.27Z" fill="#D7E8F0"/>
<path d="M792.601 8.00003V40H824.601V-18.72H792.601V8.00003ZM797.861 -13.48H819.341V8.00003H797.861V-13.48ZM797.861 13.25H819.341V34.75H797.861V13.25Z" fill="#D7E8F0"/>
<path d="M844.261 8.00003V40H876.261V-18.72H844.261V8.00003ZM849.511 -13.48H871.001V8.00003H849.511V-13.48ZM849.511 13.25H871.001V34.75H849.511V13.25Z" fill="#D7E8F0"/>
<path d="M645.35 681.13C636.9 689.65 628.53 699.13 619.61 707.74C617.157 710.133 614.647 712.447 612.08 714.68C609.23 717.16 606.29 719.52 603.28 721.68C603.062 721.05 602.794 720.438 602.48 719.85C597.43 709.85 583.73 703.52 582.03 692.18C580.48 681.59 590.03 671.86 588.47 661.48C586.71 649.74 572.27 642.77 569.6 631.3C567.9 624.18 569.42 615.97 568.8 608.63C568.091 600.423 566.703 592.288 564.65 584.31C565.65 584.24 566.65 584.21 567.65 584.18C587.95 583.84 607.93 595.24 614.5 611.26C619.79 624.26 617.1 639.17 624.13 651.32C624.553 652.106 625.031 652.861 625.56 653.58C626.492 654.854 627.494 656.076 628.56 657.24L630.79 659.56C631.16 659.93 631.57 660.27 631.94 660.67C632.31 661.07 632.71 661.42 633.08 661.82C636.58 665.17 640.15 668.54 642.47 672.54C642.68 672.887 642.868 673.248 643.03 673.62C643.241 673.991 643.428 674.375 643.59 674.77C643.8 675.2 643.96 675.61 644.11 676.01C644.26 676.41 644.45 677.01 644.61 677.43C644.83 678.18 645.04 678.89 645.2 679.63C645.2 679.82 645.2 679.98 645.26 680.13C645.32 680.28 645.26 680.25 645.26 680.32C645.275 680.379 645.275 680.441 645.26 680.5C645.26 680.63 645.26 680.72 645.32 680.81V680.87C645.306 680.958 645.316 681.048 645.35 681.13Z" fill="white"/>
<path d="M645.48 681.75H645.51L645.48 681.78V681.75Z" fill="white"/>
<path d="M645.54 681.69C645.79 681.47 646 681.32 646.25 681.1C646.04 681.29 645.79 681.5 645.57 681.72C645.57 681.72 645.57 681.72 645.51 681.72L645.54 681.69Z" fill="white"/>
<path d="M716.61 632.46C716.395 635.947 716.395 639.443 716.61 642.93C710.51 644.42 704.5 646.06 698.61 648.04C694.95 649.25 691.36 650.58 687.77 652.1C677.81 656.14 668.431 661.487 659.88 668C661.743 664.824 663.055 661.354 663.76 657.74C663.76 657.59 663.82 657.43 663.85 657.25C665.4 649.76 665.52 641.89 669.05 634.73C675.62 621.53 694.83 611.96 714.94 611.34H715.31C717.14 611.34 719 611.34 720.86 611.43C718.777 618.289 717.354 625.331 716.61 632.46Z" fill="white"/>
<path d="M707.47 622.82L698.55 648C694.89 649.21 691.3 650.54 687.71 652.06C693.44 640.92 700 630.85 707.47 622.82Z" fill="white"/>
<path d="M645.58 681.79C645.58 681.59 645.55 681.391 645.49 681.2C645.55 681.57 645.58 681.79 645.58 681.79Z" fill="white"/>
<path d="M577.75 597.51C597.75 623.44 611.03 667.51 619.61 707.74C617.157 710.133 614.647 712.447 612.08 714.68L577.75 597.51Z" fill="white"/>
<path d="M648.37 641.23C644.37 653.44 644.22 665.77 644.69 673.58C644.81 676.103 645.078 678.618 645.49 681.11L648.37 641.23Z" fill="white"/>
<path d="M645.35 681.13C636.9 689.65 628.53 699.13 619.61 707.74C617.157 710.133 614.647 712.447 612.08 714.68C609.23 717.16 606.29 719.52 603.28 721.68C603.062 721.05 602.794 720.438 602.48 719.85C597.43 709.85 583.73 703.52 582.03 692.18C580.48 681.59 590.03 671.86 588.47 661.48C586.71 649.74 572.27 642.77 569.6 631.3C567.9 624.18 569.42 615.97 568.8 608.63C568.091 600.423 566.703 592.288 564.65 584.31C565.65 584.24 566.65 584.21 567.65 584.18C587.95 583.84 607.93 595.24 614.5 611.26C619.79 624.26 617.1 639.17 624.13 651.32C624.553 652.106 625.031 652.861 625.56 653.58C626.492 654.854 627.494 656.076 628.56 657.24L630.79 659.56C631.16 659.93 631.57 660.27 631.94 660.67C632.31 661.07 632.71 661.42 633.08 661.82C636.58 665.17 640.15 668.54 642.47 672.54C642.68 672.887 642.868 673.248 643.03 673.62C643.241 673.991 643.428 674.375 643.59 674.77C643.8 675.2 643.96 675.61 644.11 676.01C644.26 676.41 644.45 677.01 644.61 677.43C644.83 678.18 645.04 678.89 645.2 679.63C645.2 679.82 645.2 679.98 645.26 680.13C645.32 680.28 645.26 680.25 645.26 680.32C645.275 680.379 645.275 680.441 645.26 680.5C645.26 680.63 645.26 680.72 645.32 680.81V680.87C645.306 680.958 645.316 681.048 645.35 681.13V681.13Z" stroke="#CCDDE2" stroke-width="4.65" stroke-miterlimit="10"/>
<path d="M663.76 657.77C663.052 661.374 661.74 664.833 659.88 668" stroke="#CCDDE2" stroke-width="4.65" stroke-miterlimit="10"/>
<path d="M716.58 642.93C716.365 639.443 716.365 635.947 716.58 632.46C717.326 625.341 718.75 618.309 720.83 611.46C718.97 611.34 717.11 611.34 715.28 611.37H714.91C694.8 611.99 675.59 621.56 669.02 634.76C665.49 641.92 665.37 649.76 663.82 657.28" stroke="#CCDDE2" stroke-width="4.65" stroke-miterlimit="10"/>
<path d="M663.77 657.78C663.77 657.62 663.829 657.47 663.859 657.28" stroke="#CCDDE2" stroke-width="4.65" stroke-miterlimit="10"/>
<path d="M663.85 657.24C663.85 657.42 663.79 657.58 663.76 657.73C663.056 661.348 661.744 664.82 659.88 668" stroke="#CCDDE2" stroke-width="4.65" stroke-miterlimit="10"/>
<path d="M663.77 657.78C663.77 657.62 663.829 657.47 663.859 657.28" stroke="#CCDDE2" stroke-width="4.65" stroke-miterlimit="10"/>
<path d="M645.48 681.6V681.75" stroke="#CCDDE2" stroke-width="4.65" stroke-miterlimit="10"/>
<path d="M707.47 622.82C700 630.82 693.47 640.92 687.71 652.1" stroke="#CCDDE2" stroke-width="4.65" stroke-miterlimit="10"/>
<path d="M645.58 681.79C645.58 681.59 645.55 681.391 645.49 681.2C645.55 681.57 645.58 681.79 645.58 681.79Z" stroke="#CCDDE2" stroke-width="4.65" stroke-miterlimit="10"/>
<path d="M577.75 597.51C597.75 623.44 611.03 667.51 619.61 707.74" stroke="#CCDDE2" stroke-width="4.65" stroke-miterlimit="10"/>
<path d="M648.37 641.23C644.37 653.44 644.22 665.77 644.69 673.58C644.81 676.103 645.078 678.618 645.49 681.11" stroke="#CCDDE2" stroke-width="4.65" stroke-miterlimit="10"/>
<path d="M861.08 353.38C873.81 401.06 886.94 452.43 885.86 501.44C884.71 553.09 858.41 596.44 811.29 618.44C780.62 632.75 747.65 635.38 716.58 642.91C710.48 644.4 704.47 646.04 698.58 648.02C694.92 649.23 691.33 650.56 687.74 652.08C677.789 656.129 668.42 661.483 659.88 668" stroke="#CCDDE2" stroke-width="4.65" stroke-miterlimit="10"/>
<path d="M352.27 82C352.27 82 292.91 68.45 243.5 85.15C237.344 87.178 231.381 89.7481 225.68 92.83C197.68 107.98 176.55 136.45 178.1 188.16C178.93 215.16 177.35 241.79 172.03 267.63C170.29 276.017 168.14 284.317 165.58 292.53C159.309 312.612 150.258 331.717 138.69 349.29C101.85 405.15 107.43 463.21 148.29 517.05C150.43 519.87 152.63 522.66 154.89 525.39" stroke="#CCDDE2" stroke-width="4.65" stroke-miterlimit="10"/>
<path d="M784.79 57.26H419.43C377.291 57.26 343.13 91.4207 343.13 133.56V477.9C343.13 520.039 377.291 554.2 419.43 554.2H784.79C826.929 554.2 861.09 520.039 861.09 477.9V133.56C861.09 91.4207 826.929 57.26 784.79 57.26Z" fill="#3FBDF1"/>
<path d="M779.72 50H416.94C372.001 50 335.57 86.4306 335.57 131.37V472.83C335.57 517.769 372.001 554.2 416.94 554.2H779.72C824.66 554.2 861.09 517.769 861.09 472.83V131.37C861.09 86.4306 824.66 50 779.72 50Z" stroke="black" stroke-width="4.65" stroke-miterlimit="10"/>
<path d="M774.6 67.03H429.62C387.481 67.03 353.32 101.191 353.32 143.33V468.12C353.32 510.259 387.481 544.42 429.62 544.42H774.6C816.74 544.42 850.9 510.259 850.9 468.12V143.33C850.9 101.191 816.74 67.03 774.6 67.03Z" fill="#3FBDF1"/>
<path d="M792.109 92.09H687.919C673.759 92.09 662.27 104.45 662.27 119.66V360.82C662.27 376.06 673.759 388.45 687.919 388.45H792.109C806.299 388.45 817.83 376.06 817.83 360.82V119.66C817.83 104.45 806.299 92.09 792.109 92.09ZM810.45 361.87C810.431 366.94 808.408 371.796 804.823 375.38C801.237 378.964 796.379 380.984 791.31 381H688.789C683.713 380.984 678.848 378.962 675.255 375.375C671.663 371.788 669.633 366.927 669.609 361.85V118.67C669.633 113.593 671.663 108.732 675.255 105.145C678.848 101.557 683.713 99.5357 688.789 99.52H791.31C796.383 99.5358 801.243 101.559 804.83 105.147C808.416 108.735 810.436 113.597 810.45 118.67V361.87Z" fill="#D7E8F0"/>
<path d="M790.74 416.75H686.55C672.4 416.75 660.9 429.11 660.9 444.32V481C660.9 496.25 672.4 508.64 686.55 508.64H790.74C804.93 508.64 816.46 496.25 816.46 481V444.32C816.46 429.11 804.93 416.75 790.74 416.75ZM809.08 482.06C809.067 487.132 807.046 491.993 803.46 495.579C799.873 499.166 795.013 501.187 789.94 501.2H687.42C682.344 501.187 677.48 499.167 673.887 495.582C670.294 491.996 668.264 487.136 668.24 482.06V443.33C668.264 438.253 670.293 433.392 673.886 429.805C677.479 426.217 682.344 424.196 687.42 424.18H789.94C795.013 424.196 799.874 426.219 803.46 429.807C807.047 433.395 809.067 438.257 809.08 443.33V482.06Z" fill="#D7E8F0"/>
<path d="M557.25 443.41L404.57 441.17C402.928 441.144 401.363 440.467 400.219 439.287C399.075 438.108 398.446 436.523 398.47 434.88C398.468 434.311 398.549 433.745 398.71 433.2C399.104 431.908 399.907 430.778 400.998 429.981C402.089 429.184 403.409 428.762 404.76 428.78L557.44 431C556.299 432.773 555.66 434.822 555.59 436.93C555.508 439.205 556.084 441.455 557.25 443.41Z" fill="#3FBDF1"/>
<path d="M594.27 439.41C593.882 440.7 593.089 441.831 592.008 442.634C590.928 443.438 589.616 443.871 588.27 443.87L577.27 443.71C578.449 441.866 579.092 439.731 579.125 437.542C579.159 435.354 578.582 433.199 577.46 431.32L588.46 431.48C590.1 431.514 591.66 432.194 592.802 433.371C593.944 434.549 594.576 436.13 594.56 437.77C594.541 438.328 594.443 438.88 594.27 439.41Z" fill="#D7E8F0"/>
<path d="M593.91 464C593.523 465.288 592.729 466.415 591.648 467.214C590.566 468.013 589.255 468.439 587.91 468.43L436.16 466.21C437.577 464.52 438.486 462.462 438.782 460.277C439.077 458.091 438.747 455.866 437.83 453.86L588.05 456C589.691 456.032 591.253 456.71 592.396 457.889C593.538 459.067 594.169 460.649 594.15 462.29C594.156 462.869 594.075 463.445 593.91 464Z" fill="#D7E8F0"/>
<path d="M417.9 465.93L404.22 465.73C402.581 465.706 401.018 465.034 399.872 463.861C398.727 462.688 398.094 461.109 398.11 459.47C398.116 458.891 398.2 458.316 398.36 457.76C398.743 456.473 399.537 455.346 400.62 454.552C401.703 453.757 403.017 453.339 404.36 453.36L416.55 453.55C415.837 455.029 415.435 456.639 415.37 458.28C415.268 461.051 416.166 463.766 417.9 465.93Z" fill="#3FBDF1"/>
<path d="M546.45 492.68L404.78 490.62C403.141 490.583 401.582 489.903 400.44 488.726C399.299 487.549 398.666 485.97 398.68 484.33C398.683 483.773 398.771 483.22 398.94 482.69C399.324 481.398 400.117 480.266 401.198 479.462C402.28 478.658 403.592 478.226 404.94 478.23L546.4 480.31C545.245 482.166 544.633 484.309 544.633 486.495C544.633 488.681 545.245 490.824 546.4 492.68H546.45Z" fill="#3FBDF1"/>
<path d="M594.5 488.87C594.116 490.158 593.322 491.287 592.24 492.084C591.157 492.882 589.845 493.305 588.5 493.29L566.24 493L546.45 492.73C545.296 490.874 544.684 488.731 544.684 486.545C544.684 484.359 545.296 482.216 546.45 480.36L566.61 480.66L588.61 480.98C590.248 481.006 591.808 481.679 592.951 482.852C594.094 484.025 594.726 485.602 594.71 487.24C594.718 487.791 594.647 488.339 594.5 488.87Z" fill="#D7E8F0"/>
<path d="M577.21 443.71C575.673 446.113 573.315 447.876 570.576 448.673C567.836 449.469 564.901 449.244 562.315 448.04C559.729 446.835 557.668 444.733 556.514 442.124C555.36 439.515 555.193 436.576 556.042 433.853C556.892 431.129 558.701 428.807 561.134 427.316C563.566 425.826 566.457 425.269 569.269 425.749C572.081 426.228 574.624 427.713 576.425 429.925C578.225 432.138 579.162 434.929 579.06 437.78C578.987 439.887 578.348 441.935 577.21 443.71Z" fill="white"/>
<g opacity="0.72">
<path opacity="0.72" d="M572.78 436.51C572.516 437.917 571.853 439.219 570.87 440.26C570.392 440.79 569.871 441.278 569.31 441.72C569 441.94 567.39 443.23 567.08 443.07C564.96 442 562.29 439.31 561.96 436.68C561.905 436.268 561.905 435.851 561.96 435.44C562.077 434.732 562.445 434.089 562.995 433.629C563.545 433.168 564.243 432.92 564.96 432.93C565.43 432.947 565.89 433.075 566.301 433.302C566.713 433.53 567.066 433.851 567.33 434.24C567.631 433.878 568.009 433.589 568.436 433.393C568.864 433.197 569.33 433.101 569.8 433.11C570.224 433.124 570.64 433.225 571.023 433.407C571.405 433.588 571.747 433.846 572.026 434.165C572.306 434.483 572.517 434.856 572.646 435.259C572.776 435.663 572.822 436.088 572.78 436.51Z" fill="#3FBDF1"/>
</g>
<path d="M436.14 466.21C435.02 467.553 433.614 468.628 432.024 469.357C430.435 470.086 428.702 470.451 426.954 470.424C425.205 470.397 423.485 469.98 421.918 469.202C420.352 468.425 418.979 467.307 417.9 465.93C416.174 463.763 415.283 461.048 415.39 458.28C415.456 456.639 415.858 455.029 416.57 453.55C417.574 451.51 419.147 449.805 421.099 448.639C423.051 447.473 425.298 446.897 427.57 446.98C429.759 447.049 431.883 447.734 433.7 448.957C435.517 450.179 436.952 451.889 437.84 453.89C438.758 455.896 439.088 458.121 438.792 460.307C438.496 462.492 437.587 464.55 436.17 466.24L436.14 466.21Z" fill="white"/>
<g opacity="0.72">
<path opacity="0.72" d="M432.59 457.84C432.319 459.244 431.653 460.542 430.67 461.58C430.2 462.117 429.677 462.606 429.11 463.04C428.81 463.26 427.19 464.56 426.89 464.39C424.77 463.33 422.1 460.64 421.76 458C421.705 457.588 421.705 457.171 421.76 456.76C421.863 456.174 422.138 455.632 422.549 455.203C422.961 454.774 423.49 454.477 424.071 454.349C424.652 454.222 425.258 454.27 425.811 454.487C426.365 454.704 426.841 455.081 427.18 455.57C427.577 455.019 428.149 454.618 428.803 454.434C429.456 454.251 430.153 454.294 430.779 454.558C431.405 454.821 431.923 455.289 432.249 455.886C432.574 456.482 432.687 457.171 432.57 457.84H432.59Z" fill="#3FBDF1"/>
</g>
<path d="M566.24 493C564.828 495.133 562.759 496.747 560.347 497.598C557.935 498.449 555.312 498.49 552.874 497.716C550.436 496.941 548.317 495.393 546.839 493.306C545.36 491.219 544.602 488.707 544.68 486.15C544.754 484.101 545.357 482.107 546.43 480.36C547.253 479.044 548.329 477.905 549.595 477.007C550.86 476.109 552.292 475.471 553.805 475.13C555.319 474.788 556.886 474.75 558.414 475.017C559.943 475.284 561.404 475.851 562.712 476.686C564.02 477.521 565.15 478.606 566.037 479.88C566.923 481.154 567.548 482.591 567.876 484.108C568.204 485.624 568.229 487.191 567.948 488.717C567.667 490.244 567.087 491.699 566.24 493Z" fill="white"/>
<g opacity="0.72">
<path opacity="0.72" d="M561.89 485.66C561.621 487.068 560.955 488.369 559.97 489.41C559.5 489.947 558.977 490.436 558.41 490.87C558.11 491.09 556.49 492.38 556.19 492.22C554.07 491.15 551.4 488.47 551.06 485.83C551.005 485.419 551.005 485.002 551.06 484.59C551.163 484.004 551.437 483.463 551.849 483.033C552.261 482.604 552.79 482.307 553.371 482.179C553.952 482.052 554.558 482.1 555.111 482.317C555.665 482.534 556.141 482.911 556.48 483.4C556.876 482.85 557.447 482.451 558.1 482.268C558.752 482.084 559.448 482.127 560.073 482.389C560.698 482.651 561.215 483.117 561.542 483.711C561.868 484.305 561.984 484.992 561.87 485.66H561.89Z" fill="#3FBDF1"/>
</g>
<path d="M397.3 121.36L397.56 157.55C397.626 163.863 400.131 169.905 404.55 174.413C408.969 178.922 414.96 181.547 421.27 181.74L457.09 182.36C460.17 182.407 463.228 181.835 466.083 180.678C468.938 179.521 471.532 177.801 473.71 175.623C475.887 173.444 477.605 170.85 478.761 167.994C479.918 165.139 480.488 162.08 480.44 159L480.17 122.81C480.108 116.499 477.606 110.456 473.188 105.949C468.77 101.441 462.779 98.8183 456.47 98.63L420.65 98C417.569 97.9528 414.511 98.5248 411.656 99.6821C408.801 100.839 406.208 102.559 404.03 104.737C401.852 106.916 400.134 109.51 398.978 112.366C397.822 115.221 397.251 118.28 397.3 121.36Z" fill="white"/>
<path d="M402.81 130.44L403 156.64C403.059 162.121 405.235 167.366 409.072 171.28C412.909 175.194 418.111 177.473 423.59 177.64L454.7 178.18C457.375 178.22 460.031 177.724 462.511 176.719C464.991 175.714 467.244 174.222 469.137 172.331C471.03 170.44 472.524 168.189 473.531 165.71C474.538 163.231 475.037 160.575 475 157.9V156.13C470.63 147.19 462.12 133.81 453 141.81C439.91 153.31 433.92 144.56 426.29 133.27C419.92 123.82 410.23 116.92 402.81 130.44Z" fill="#3FBDF1"/>
<path d="M461.34 126.822C465.292 124.197 466.31 118.779 463.614 114.722C460.919 110.665 455.53 109.504 451.579 112.129C447.627 114.755 446.609 120.172 449.305 124.229C452 128.287 457.389 129.448 461.34 126.822Z" fill="#3FBDF1"/>
<path d="M605.38 136C599.782 135.998 594.32 137.729 589.746 140.956C585.171 144.182 581.707 148.746 579.83 154.02C577.953 159.294 577.755 165.02 579.262 170.411C580.77 175.802 583.91 180.595 588.25 184.13L517.25 328.84C516.813 328.771 516.372 328.728 515.93 328.71C514.798 328.725 513.673 328.9 512.59 329.23L466.4 271.84C468.462 268.994 469.63 265.598 469.755 262.086C469.879 258.573 468.954 255.104 467.098 252.119C465.243 249.134 462.54 246.77 459.334 245.328C456.129 243.885 452.567 243.431 449.103 244.021C445.638 244.612 442.428 246.222 439.882 248.644C437.335 251.067 435.569 254.193 434.807 257.624C434.044 261.055 434.322 264.636 435.603 267.908C436.884 271.181 439.111 273.998 442 276L409.63 368.12C406.808 368.289 404.131 369.43 402.054 371.348C399.978 373.267 398.629 375.846 398.239 378.646C397.848 381.446 398.438 384.296 399.91 386.71C401.382 389.124 403.644 390.954 406.312 391.889C408.981 392.824 411.89 392.807 414.547 391.84C417.204 390.873 419.444 389.016 420.887 386.585C422.33 384.153 422.887 381.297 422.463 378.502C422.038 375.706 420.659 373.144 418.56 371.25L450.93 279.12C451.33 279.12 451.72 279.18 452.12 279.18C454.527 279.18 456.909 278.69 459.12 277.74L505.3 335.11C504.327 336.875 503.811 338.855 503.8 340.87C503.753 342.504 504.035 344.13 504.628 345.653C505.22 347.176 506.113 348.564 507.252 349.736C508.39 350.908 509.753 351.839 511.258 352.476C512.763 353.112 514.381 353.44 516.015 353.44C517.649 353.44 519.267 353.112 520.772 352.476C522.277 351.839 523.64 350.908 524.779 349.736C525.918 348.564 526.81 347.176 527.403 345.653C527.995 344.13 528.277 342.504 528.23 340.87C528.222 338.153 527.299 335.518 525.61 333.39L596.61 188.68C600.342 189.994 604.316 190.475 608.254 190.09C612.192 189.705 615.998 188.462 619.404 186.45C622.811 184.437 625.735 181.703 627.973 178.44C630.21 175.177 631.706 171.464 632.356 167.561C633.006 163.658 632.794 159.66 631.734 155.848C630.674 152.036 628.793 148.502 626.222 145.495C623.652 142.487 620.454 140.079 616.853 138.438C613.252 136.798 609.337 135.966 605.38 136Z" fill="#D7E8F0"/>
<path d="M691.18 188.15H786.18" stroke="white" stroke-width="4.65" stroke-miterlimit="10"/>
<path d="M691.18 202.82H786.18" stroke="white" stroke-width="4.65" stroke-miterlimit="10"/>
<path d="M691.18 217.48H786.18" stroke="white" stroke-width="4.65" stroke-miterlimit="10"/>
<path d="M691.18 232.14H786.18" stroke="white" stroke-width="4.65" stroke-miterlimit="10"/>
<path d="M691.18 246.81H786.18" stroke="white" stroke-width="4.65" stroke-miterlimit="10"/>
<path d="M691.18 332.45H786.18" stroke="white" stroke-width="4.65" stroke-miterlimit="10"/>
<path d="M691.18 345.39H786.18" stroke="white" stroke-width="4.65" stroke-miterlimit="10"/>
<path d="M766.22 444.48C767.175 445.272 767.94 446.268 768.459 447.394C768.979 448.521 769.239 449.75 769.22 450.99L769 480.32C768.993 481.427 768.766 482.522 768.335 483.541C767.903 484.56 767.274 485.484 766.484 486.26C765.695 487.036 764.759 487.648 763.733 488.062C762.706 488.475 761.607 488.682 760.5 488.67L716.5 488.29C714.269 488.269 712.137 487.363 710.574 485.771C709.01 484.179 708.142 482.031 708.16 479.8L708.42 450.45C708.504 448.239 709.43 446.144 711.009 444.593C712.587 443.043 714.698 442.154 716.91 442.11L760.91 442.49C762.86 442.507 764.74 443.212 766.22 444.48Z" fill="white"/>
<path d="M760 449.84L739.48 467.47C739.218 467.693 738.885 467.816 738.54 467.816C738.196 467.816 737.862 467.693 737.6 467.47L716.71 449.47C716.479 449.276 716.315 449.014 716.241 448.722C716.167 448.43 716.187 448.121 716.297 447.841C716.408 447.56 716.604 447.321 716.857 447.158C717.111 446.994 717.409 446.915 717.71 446.93L759.12 447.3C759.411 447.31 759.692 447.408 759.926 447.58C760.161 447.753 760.337 447.993 760.432 448.268C760.528 448.543 760.537 448.84 760.46 449.121C760.383 449.402 760.223 449.652 760 449.84Z" fill="#3FBDF1"/>
<path d="M740.06 270.38C735.676 270.376 731.39 271.672 727.743 274.105C724.096 276.537 721.253 279.997 719.572 284.046C717.892 288.095 717.45 292.551 718.303 296.851C719.156 301.151 721.265 305.101 724.363 308.202C727.462 311.304 731.41 313.416 735.709 314.273C740.008 315.129 744.465 314.692 748.516 313.015C752.566 311.338 756.028 308.498 758.464 304.854C760.9 301.209 762.2 296.924 762.2 292.54C762.201 289.631 761.63 286.751 760.518 284.063C759.406 281.375 757.775 278.932 755.719 276.875C753.664 274.817 751.222 273.184 748.536 272.07C745.849 270.956 742.969 270.381 740.06 270.38ZM740.06 309.38C739.201 309.38 738.377 309.039 737.769 308.431C737.161 307.823 736.82 306.999 736.82 306.14C736.82 305.281 737.161 304.457 737.769 303.849C738.377 303.241 739.201 302.9 740.06 302.9C740.919 302.9 741.743 303.241 742.351 303.849C742.959 304.457 743.3 305.281 743.3 306.14C743.3 306.999 742.959 307.823 742.351 308.431C741.743 309.039 740.919 309.38 740.06 309.38ZM744.13 284.46C743.45 289.27 742.87 294.32 741.44 298.98C741.307 299.233 741.107 299.446 740.862 299.594C740.617 299.742 740.336 299.82 740.05 299.82C739.764 299.82 739.483 299.742 739.238 299.594C738.993 299.446 738.793 299.233 738.66 298.98C737.646 295.47 736.871 291.895 736.34 288.28C735.89 285.66 734.34 281.39 735.83 278.85C737.12 276.56 740.77 276.29 742.83 277.48C745.46 278.89 744.44 282 744.13 284.42V284.46Z" fill="white"/>
<path d="M605.77 183.53C616.761 183.53 625.67 174.62 625.67 163.63C625.67 152.64 616.761 143.73 605.77 143.73C594.78 143.73 585.87 152.64 585.87 163.63C585.87 174.62 594.78 183.53 605.77 183.53Z" fill="white"/>
<path d="M739.9 135.12C743.573 135.12 746.55 132.143 746.55 128.47C746.55 124.797 743.573 121.82 739.9 121.82C736.227 121.82 733.25 124.797 733.25 128.47C733.25 132.143 736.227 135.12 739.9 135.12Z" fill="white"/>
<path d="M721.33 158.54C721.33 153.615 723.287 148.892 726.769 145.409C730.252 141.926 734.975 139.97 739.9 139.97C744.825 139.97 749.548 141.926 753.031 145.409C756.514 148.892 758.47 153.615 758.47 158.54H721.33Z" fill="white"/>
<path d="M612 794.19C611.996 795.701 611.532 797.174 610.669 798.414C609.806 799.654 608.585 800.601 607.17 801.13L537.52 827.13C537.52 827.13 534.2 820.97 528.41 810.68L488.63 744.13C477.88 799.43 465.89 854.8 458.46 889.31L451.3 923.67L480 933.11C481.726 933.526 483.261 934.509 484.362 935.902C485.462 937.294 486.064 939.015 486.07 940.79C486.068 941.994 485.792 943.181 485.262 944.263C484.733 945.344 483.965 946.291 483.017 947.032C482.068 947.773 480.963 948.288 479.785 948.539C478.608 948.79 477.389 948.77 476.22 948.48L409.7 931.62V915.36L408.12 915.05L409.49 725.38L344.49 710.01C336.34 712.55 327.73 714.88 318.93 716.77C318.836 716.783 318.742 716.803 318.65 716.83C297.292 722.429 274.982 723.391 253.22 719.65C253.03 719.65 252.81 719.56 252.63 719.52C251.05 719.22 249.47 718.87 247.92 718.52C247.45 718.43 246.99 718.34 246.52 718.21C245.16 717.9 243.8 717.5 242.44 717.13C241.69 716.91 240.95 716.73 240.24 716.51C239.53 716.29 239 716.11 238.38 715.89C226.668 712.213 215.851 706.133 206.62 698.04C199.543 692.097 193.542 684.98 188.88 677C186.88 673.84 185.01 670.52 183.27 667.11C172.71 646.26 170.51 639.17 173.58 638.98C166.82 636.598 160.27 633.655 154 630.18C154 630.18 140.18 549.53 170.32 468.36C169.744 463.339 169.848 458.263 170.63 453.27C176.98 407.73 211.93 360.92 253.63 341.96C275.97 331.8 312.4 316.21 300.63 285.17C296.91 275.35 291.63 266.89 290.63 256.7C290.54 255.7 290.42 254.81 290.35 253.82C288.68 229.82 302.65 207.03 325.27 198.82C332.672 196.033 340.583 194.859 348.474 195.377C356.366 195.894 364.056 198.091 371.03 201.82C373.439 203.091 375.6 204.785 377.41 206.82C384.29 207 392.93 208.21 396.99 210.1C403.87 213.32 409.38 218.96 413.5 225.31C421.1 237.146 424.152 251.336 422.09 265.25C420.906 272.95 418.164 280.327 414.03 286.93C411.992 290.238 409.627 293.334 406.97 296.17C404.64 298.61 401.33 302.17 398.14 303.48C398.176 303.508 398.22 303.524 398.265 303.524C398.311 303.524 398.355 303.508 398.39 303.48L397.46 318.35C416.56 314 467.59 296.08 505 222.09C507.7 216.36 510.48 210.66 513.4 205.02C522.04 188.23 531.3 171.53 543.57 157.09C546.57 153.59 551.01 150.43 555.78 151.95C559.96 153.28 562.78 157.95 559.87 161.87L539.79 189.31L546.2 188.48C546.899 188.649 547.553 188.968 548.115 189.415C548.678 189.863 549.136 190.427 549.458 191.07C549.78 191.713 549.957 192.418 549.979 193.137C550 193.855 549.864 194.569 549.58 195.23L545.52 204.87L547.44 202.61C548.761 201.05 550.634 200.061 552.667 199.85C554.7 199.639 556.736 200.222 558.349 201.478C559.962 202.733 561.027 204.563 561.322 206.586C561.617 208.608 561.118 210.667 559.93 212.33L549.35 226C547.933 227.805 546.133 229.274 544.08 230.3L523.14 240.4C529.333 248.013 535.092 255.969 540.39 264.23C528.892 286.268 515.413 307.214 500.12 326.81C474.34 360.02 437.22 397.14 391.9 412.66C390.9 440.11 386.05 467.31 378.52 493.92C402.03 493.92 424.46 493.92 447.14 493.92L464.24 447.26C465.026 445.107 466.455 443.248 468.333 441.935C470.212 440.622 472.449 439.919 474.74 439.92H543.09C544.28 439.924 545.457 440.155 546.56 440.6C548.236 441.292 549.669 442.465 550.678 443.97C551.687 445.476 552.227 447.247 552.23 449.06C552.218 450.172 552.008 451.272 551.61 452.31L547.08 464.09H546.93H527.66L519.82 486.55L522.05 480.88H531.69C533.2 480.88 534.686 481.253 536.017 481.965C537.348 482.678 538.482 483.709 539.318 484.966C540.155 486.223 540.667 487.667 540.811 489.17C540.954 490.673 540.724 492.188 540.14 493.58L531.93 513.22C529.455 519.134 525.53 524.329 520.518 528.326C515.505 532.323 509.567 534.993 503.25 536.09L502.38 536.24L500.77 541L501.6 539.36C501.33 540.01 501.02 540.72 500.74 541.5H522.36C522.36 541.5 517.56 555.5 508.73 556.34C508.017 556.396 507.299 556.372 506.59 556.27H461.79C464.3 559.06 467.12 562.44 470.13 566.41C483.13 566.22 502.04 567.61 506.72 576.69C507.526 577.593 508.261 578.556 508.92 579.57C510.71 582.57 511.3 589.57 510.87 599.68C510.997 610.106 510.123 620.521 508.26 630.78C510.527 635.033 512.707 639.31 514.8 643.61C519.352 652.117 523.458 660.856 527.1 669.79C527.226 670.027 527.33 670.274 527.41 670.53C538.327 695.563 547.904 721.159 556.1 747.21L556.56 748.82C562.76 767.1 567.81 783.71 569.73 793.82L602.23 787.16C603.345 786.79 604.532 786.69 605.693 786.867C606.854 787.045 607.957 787.495 608.91 788.181C609.863 788.867 610.641 789.769 611.178 790.814C611.715 791.858 611.997 793.015 612 794.19Z" fill="white"/>
<path d="M499.85 542.7H521.47C520.583 545.14 519.454 547.485 518.1 549.7C515.43 553.88 511.31 558.25 505.86 557.51H440.27C437.72 557.527 435.237 556.697 433.21 555.15C432.761 553.072 432.889 550.911 433.58 548.9C460.07 544.84 487.21 540.47 499.35 537.96L501.64 537.56L499.85 542.7Z" fill="#3FBDF1"/>
<path d="M551.34 450.38C551.328 451.492 551.118 452.592 550.72 453.63L546.2 465.4H526.92L519 488L516.12 495.22H453.28L467.84 455.56C468.63 453.408 470.062 451.55 471.941 450.238C473.821 448.925 476.058 448.221 478.35 448.22H546.69C547.88 448.222 549.058 448.453 550.16 448.9C550.543 449.056 550.917 449.233 551.28 449.43C551.31 449.73 551.34 450.07 551.34 450.38Z" fill="#3FBDF1"/>
<path d="M551.35 450.37C551.337 451.481 551.127 452.582 550.73 453.62L546.2 465.39H526.93L533.63 447.21C534.37 445.194 535.796 443.503 537.658 442.434C539.521 441.364 541.7 440.985 543.814 441.362C545.928 441.739 547.842 442.848 549.22 444.496C550.598 446.143 551.352 448.223 551.35 450.37Z" fill="#3FBDF1"/>
<path d="M521.46 542.7C521.46 542.7 515.26 560.92 504 557C497 554.59 498.05 547.62 499.88 542.66L521.46 542.7Z" fill="#3FBDF1"/>
<path d="M505.62 465.39H474.19" stroke="white" stroke-width="4.65" stroke-linecap="round" stroke-linejoin="round"/>
<path d="M501.75 477.23H470.32" stroke="white" stroke-width="4.65" stroke-linecap="round" stroke-linejoin="round"/>
<path d="M526.37 671C520.927 657.84 514.578 645.072 507.37 632.79C510.29 617.32 512.28 590.22 505.95 577.92C501.27 568.83 482.38 567.45 469.34 567.64C459.27 554.33 451.13 547.47 451.13 547.47C451.13 547.47 390.51 557.29 376.67 557.37C362.83 557.45 362.84 565.12 362.84 565.12C362.84 565.12 353.2 594.21 342.3 608.66C331.4 623.11 302.08 640.66 259.83 647.42C217.58 654.18 184.35 645.85 176.73 641.61C169.11 637.37 168.86 641.46 182.5 668.33C196.14 695.2 217.14 714.52 252.41 720.89C274.164 724.636 296.468 723.674 317.82 718.07C317.82 718.07 373.63 704 390 693.27C406.37 682.54 408.93 697.13 408.93 697.13L407.33 916.31L450.53 924.93L487.85 745.4L527.65 812L569 795C564.13 769.43 539.12 702 526.37 671Z" fill="#2E2E2E"/>
<path d="M413.47 377.93C412.584 384.018 409.994 389.731 406 394.41C402.931 398.331 399.026 401.519 394.57 403.74C393.524 404.245 392.436 404.66 391.32 404.98C391.32 401.51 391.26 397.98 391.07 394.54C390.36 381.65 387.76 368.23 379.55 358.32C375.6 353.585 370.615 349.822 364.98 347.32C365.14 344.94 365.33 342.58 365.48 340.2C365.91 336.13 365.889 332.025 365.42 327.96C364.89 325.493 364.589 322.982 364.52 320.46C364.61 318.11 364.27 309.09 366.13 307.14C369.233 308.433 372.558 309.113 375.92 309.14C383.45 309.08 389.43 304.46 393.46 298.55C394.942 298.066 396.482 297.783 398.04 297.71C402.6 298.39 388.99 310.66 393.43 309.27C390.54 310.16 388.43 314.5 387.07 316.98C385.07 320.82 383.91 325.34 385.87 329.4C387.79 333.28 391.81 336.62 394.66 339.81C398.502 343.844 402.095 348.109 405.42 352.58C410.68 359.9 414.52 368.89 413.47 377.93Z" fill="#3FBDF1"/>
<path d="M344.26 342.22C351.42 342.665 358.444 344.385 365 347.3C370.631 349.805 375.612 353.568 379.56 358.3C387.77 368.22 390.37 381.63 391.08 394.52C391.27 397.99 391.36 401.52 391.33 404.96C391.18 435.48 386.1 465.68 377.76 495.21C403.66 495.21 428.23 495.21 453.26 495.21H516.12L519 488L521.3 482.2H531C532.511 482.2 533.998 482.573 535.33 483.286C536.662 484 537.797 485.031 538.634 486.289C539.471 487.547 539.985 488.992 540.129 490.496C540.273 492 540.043 493.516 539.46 494.91L531.25 514.55C528.768 520.461 524.84 525.652 519.826 529.647C514.813 533.642 508.875 536.311 502.56 537.41L501.69 537.57L499.4 537.97C487.26 540.48 460.12 544.85 433.63 548.91C409.4 552.66 385.7 556.13 374.49 557.74C370.24 558.36 365.9 558.82 361.49 559.1C335.32 560.71 308.3 554.89 301.3 525.1C296.74 506.02 297.74 485.45 297.95 465.59" stroke="black" stroke-width="4.65" stroke-miterlimit="10"/>
<path d="M469.55 568.5C486.49 567.72 501.67 570.23 508.18 580.83C511.46 586.19 510.66 605.09 507.28 631.45" stroke="black" stroke-width="4.65" stroke-miterlimit="10"/>
<path d="M185.76 673.93C185.796 673.976 185.827 674.026 185.85 674.08C193.1 688.86 205.85 701.62 222.16 710.55C279.63 741.99 366.07 705.15 397.16 689.82C398.4 689.209 399.776 688.925 401.157 688.995C402.538 689.064 403.879 689.484 405.052 690.216C406.226 690.948 407.193 691.967 407.863 693.177C408.532 694.387 408.882 695.747 408.88 697.13V932.9L475.39 949.75C476.42 950.015 477.492 950.068 478.543 949.907C479.594 949.746 480.602 949.374 481.505 948.814C482.409 948.253 483.189 947.515 483.8 946.645C484.411 945.775 484.84 944.79 485.06 943.75C485.498 941.729 485.127 939.617 484.026 937.867C482.924 936.117 481.181 934.869 479.17 934.39L450.48 924.94C451.81 915.62 471.27 830.39 487.81 745.41" stroke="black" stroke-width="4.65" stroke-miterlimit="10"/>
<path d="M449.85 546.36C466.85 560.76 479.06 582.9 490.49 601.71C518.34 647.54 539.17 697.42 555.35 748.46C560.24 763.88 564.74 779.46 568.99 795.04L601.47 788.37C603.313 787.771 605.318 787.917 607.055 788.777C608.792 789.637 610.123 791.142 610.765 792.971C611.406 794.8 611.307 796.807 610.487 798.564C609.668 800.32 608.193 801.686 606.38 802.37L536.73 828.37C536.73 828.37 516.35 790.3 487.87 745.37C446.13 679.45 369 577.85 348.64 599.52" stroke="black" stroke-width="4.65" stroke-miterlimit="10"/>
<path d="M389.09 320.78C389.09 320.78 457.39 316.05 504.21 223.36C504.21 223.36 519.01 233.57 539.64 265.51C539.64 265.51 481.76 382.98 391.08 413.98" stroke="black" stroke-width="4.65" stroke-miterlimit="10"/>
<path d="M382.91 212.4L386.91 218.48L389.32 222.18C391.765 227.876 393.914 233.693 395.76 239.61L395.88 240.03L400.46 257.53C400.468 257.549 400.468 257.571 400.46 257.59C401.999 260.123 404.122 262.253 406.65 263.8C407.248 264.123 407.805 264.515 408.31 264.97C411.06 267.73 403.81 268.53 402.31 269.44C401.648 269.894 401.106 270.501 400.728 271.21C400.35 271.918 400.149 272.707 400.14 273.51C391.53 309.34 397.07 299.93 393.37 307.9C396.58 305.18 404.56 296.53 404.56 296.53C405.56 295.88 406.5 293.93 407.15 292.96C409.215 289.792 410.992 286.445 412.46 282.96C417.023 272.551 418.076 260.94 415.46 249.88C411.33 232.69 401.7 215.49 382.91 212.4Z" fill="#3FBDF1"/>
<path d="M382.09 223.21C381.358 226.929 379.594 230.366 377 233.13C374.184 236.209 370.904 238.831 367.28 240.9C360.46 244.96 352.87 248.03 347.14 253.51C341.403 259.027 337.969 266.513 337.53 274.46C337.13 282.6 340.04 291.03 341.81 298.65C347.42 323.28 345.62 346.95 342.52 371.74C339.58 395.13 333.32 418.02 321.18 438.38C306.86 462.38 283.35 481.59 256.89 491.45C234.89 499.66 192.14 506.94 175.97 484.1C173.18 476.89 173.15 468.64 174.23 460.87C180.58 415.29 215.53 368.51 257.23 349.55C279.57 339.39 316 323.78 304.23 292.73C300.48 282.94 295.23 274.49 294.23 264.26C294.14 263.33 294.05 262.4 293.96 261.41C292.28 237.41 306.25 214.63 328.87 206.41C336.27 203.616 344.182 202.437 352.075 202.955C359.968 203.472 367.659 205.673 374.63 209.41C377.105 210.728 379.321 212.483 381.17 214.59C381.297 214.733 381.411 214.887 381.51 215.05C381.651 215.404 381.764 215.769 381.85 216.14C382.403 218.457 382.484 220.861 382.09 223.21Z" fill="#3FBDF1"/>
<path d="M391.38 403.93C403.46 401.14 414.06 392.49 417.09 379.85C419.91 368.14 415.45 356.12 408.54 346.7C402.13 338 388.78 330.7 389.83 318.36C390.17 314.36 392.15 310.86 394.73 307.76C395.66 306.68 396.62 305.68 397.67 304.66" stroke="black" stroke-width="4.65" stroke-miterlimit="10"/>
<path d="M366.47 306.86L365.91 347.69" stroke="black" stroke-width="4.65" stroke-miterlimit="10"/>
<path d="M299.87 286.39C296.14 276.59 290.87 268.14 289.87 257.92C289.77 256.98 289.68 256.04 289.61 255.04C287.92 231.04 301.9 208.27 324.51 200.04C331.912 197.248 339.825 196.071 347.72 196.589C355.614 197.106 363.306 199.306 370.28 203.04C372.749 204.362 374.958 206.121 376.8 208.23L377.27 208.8C378.903 210.796 380.09 213.118 380.75 215.61C381.411 218.103 381.53 220.708 381.1 223.25C380.372 226.958 378.619 230.388 376.04 233.15C373.213 236.235 369.928 238.866 366.3 240.95C359.48 245.01 351.9 248.06 346.15 253.54C340.41 259.072 336.985 266.579 336.57 274.54C336.16 282.68 339.08 291.1 340.82 298.74C346.43 323.37 344.64 347.03 341.54 371.81C338.6 395.2 332.35 418.1 320.19 438.46C305.87 462.46 282.37 481.68 255.9 491.53C233.47 499.89 189.49 507.29 174.04 482.82C168.85 474.61 168.51 464.22 169.85 454.6C176.2 409.03 211.17 362.23 252.85 343.28C275.23 333 311.66 317.43 299.87 286.39Z" stroke="black" stroke-width="4.65" stroke-miterlimit="10"/>
<path d="M385.74 258.68C387.888 258.68 389.63 256.938 389.63 254.79C389.63 252.642 387.888 250.9 385.74 250.9C383.591 250.9 381.85 252.642 381.85 254.79C381.85 256.938 383.591 258.68 385.74 258.68Z" fill="black"/>
<path d="M384.83 242.25C384.83 242.25 371.66 248.19 375.83 259.74" stroke="black" stroke-width="4.65" stroke-miterlimit="10"/>
<path d="M397 304.85C400.3 303.65 403.82 299.85 406.22 297.36C408.874 294.528 411.246 291.443 413.3 288.15C419.087 278.891 422.109 268.173 422.011 257.255C421.914 246.337 418.701 235.674 412.75 226.52C408.63 220.16 403.14 214.52 396.26 211.32C390.526 208.618 384.109 207.712 377.85 208.72C381.348 211.575 384.484 214.846 387.19 218.46C391.267 223.81 394.12 229.988 395.55 236.56C395.77 237.71 395.96 238.85 396.16 240.01C397.16 246.19 397.72 252.45 400.75 257.51C402.296 260.065 404.428 262.214 406.97 263.78C407.568 264.103 408.125 264.495 408.63 264.95C411.38 267.71 404.13 268.5 402.63 269.41C398.78 271.66 400.21 278.12 399.7 281.86C399.085 286.226 397.779 290.465 395.83 294.42C395.14 295.825 394.355 297.182 393.48 298.48C389.48 304.41 383.48 309.05 375.94 309.09C372.585 309.06 369.267 308.381 366.17 307.09C360.858 304.931 356.107 301.59 352.28 297.32" stroke="black" stroke-width="4.65" stroke-miterlimit="10"/>
<path d="M389.76 284.16C389.76 284.16 380.69 289.33 376.76 277.43" stroke="black" stroke-width="4.65" stroke-miterlimit="10"/>
<path d="M520.72 242.5L543.32 231.58C545.386 230.584 547.191 229.118 548.59 227.3L559.14 213.61C560.355 211.948 560.875 209.878 560.591 207.839C560.306 205.8 559.238 203.953 557.614 202.687C555.99 201.422 553.937 200.839 551.89 201.062C549.844 201.284 547.964 202.295 546.65 203.88L544.72 206.13L548.79 196.5C549.066 195.838 549.197 195.124 549.174 194.407C549.15 193.69 548.972 192.987 548.652 192.345C548.333 191.702 547.879 191.137 547.321 190.685C546.763 190.234 546.115 189.908 545.42 189.73L538.99 190.58L559.09 163.13C561.94 159.24 559.17 154.54 555 153.21C550.2 151.68 545.76 154.84 542.78 158.34C530.52 172.78 521.23 189.48 512.6 206.28C509.7 211.927 506.903 217.62 504.21 223.36" stroke="black" stroke-width="4.65" stroke-linejoin="round"/>
<path d="M539 190.58C539 190.58 525.89 206.89 544.73 206.13" stroke="black" stroke-width="4.65" stroke-miterlimit="10"/>
<path d="M502.5 537.4C502.5 537.4 492.78 553.17 504.1 557.04C515.42 560.91 521.61 542.71 521.61 542.71H499.76" stroke="black" stroke-width="4.65" stroke-miterlimit="10"/>
<path d="M505.98 557.5H460.9" stroke="black" stroke-width="4.65" stroke-miterlimit="10"/>
<path d="M551.49 450.37C551.477 451.481 551.267 452.582 550.87 453.62L546.35 465.39H527.08L533.77 447.21C534.51 445.194 535.937 443.503 537.799 442.434C539.661 441.364 541.841 440.985 543.955 441.362C546.069 441.739 547.983 442.848 549.361 444.496C550.738 446.143 551.492 448.223 551.49 450.37V450.37Z" stroke="black" stroke-width="4.65" stroke-miterlimit="10"/>
<path d="M457.4 465.39L446.4 495.2L463.47 448.57C464.26 446.414 465.695 444.553 467.578 443.24C469.462 441.927 471.704 441.225 474 441.23H542.34" stroke="black" stroke-width="4.65" stroke-miterlimit="10"/>
<path d="M516.14 495.2L527.08 465.39" stroke="black" stroke-width="4.65" stroke-miterlimit="10"/>
<path d="M169.59 469.61C139.44 550.78 153.26 631.45 153.26 631.45C198.8 656.79 263.37 654.59 309.62 632.32C325.98 624.42 343.62 612.52 350.76 595.08C356 582.31 361.45 569.64 365.94 556.69" stroke="black" stroke-width="4.65" stroke-miterlimit="10"/>
<path d="M143.59 722.87H408.92" stroke="black" stroke-width="4.65" stroke-miterlimit="10"/>
<path d="M377.78 495.23L374.92 504.9" stroke="black" stroke-width="4.65" stroke-miterlimit="10"/>
<path d="M185.85 674.08C185.85 674.08 174.17 653.24 170.37 639.37" stroke="black" stroke-width="4.65" stroke-miterlimit="10"/>
<path d="M243.5 85.15V292.53H165.58C168.147 284.323 170.297 276.023 172.03 267.63C177.35 241.79 178.93 215.11 178.1 188.16C176.55 136.45 197.65 107.98 225.68 92.83C231.381 89.7481 237.345 87.178 243.5 85.15Z" stroke="#CCDDE2" stroke-width="4.65" stroke-miterlimit="10"/>
<path d="M225.68 92.83V267.63H172C177.32 241.79 178.9 215.11 178.07 188.16C176.55 136.45 197.65 108 225.68 92.83Z" stroke="#CCDDE2" stroke-width="4.65" stroke-miterlimit="10"/>
</g>
<defs>
<clipPath id="clip0">
<rect width="1000" height="1000" fill="white"/>
</clipPath>
</defs>
</svg>
