<svg width="1000" height="1000" viewBox="0 0 1000 1000" fill="none" xmlns="http://www.w3.org/2000/svg">
<path d="M437.61 207.8C437.561 207.713 437.517 207.623 437.48 207.53L437.54 207.47C437.571 207.578 437.595 207.688 437.61 207.8Z" fill="#3FBDF1"/>
<path d="M437.85 209C437.757 208.673 437.69 208.338 437.65 208C437.813 208.307 437.882 208.654 437.85 209Z" fill="#3FBDF1"/>
<path d="M482.77 553.33C482.52 553.9 482.31 554.46 482.06 555.05C463.6 600 450.72 653.78 447.73 718.14C396.48 592.6 311.46 531.83 235.73 502.65C237.09 460.7 242.92 387.75 266.73 342.93C266.73 342.93 307.05 352.36 357.8 392.12C397.84 423.49 444.43 473.8 482.77 553.33Z" fill="#3FBDF1"/>
<path d="M490.33 552.65L488.6 552.26C488.85 551.66 489.07 551.09 489.31 550.51C489.65 551.21 490 552 490.33 552.65Z" fill="#3FBDF1"/>
<path d="M490.33 552.65L488.6 552.26C488.85 551.66 489.07 551.09 489.31 550.51C489.65 551.21 490 552 490.33 552.65Z" fill="#3FBDF1"/>
<path d="M457.19 840.81C456.7 840.81 456.19 840.81 455.71 840.81C264.49 840.81 106.09 695.9 77.7098 506.58C75.7998 490.42 75.5098 480.77 75.5098 480.77C75.5098 480.77 144.51 473.77 224.51 505.26C295.46 533.19 375.08 591.34 423.07 711.46V711.55C423.36 712.27 423.65 712.98 423.91 713.73C438.25 750.08 449.67 792.07 457.13 840.54C457.16 840.63 457.19 840.72 457.19 840.81Z" fill="#3FBDF1"/>
<path d="M902.32 486.57C884.05 701 710.1 869.37 498 870.23C498.12 860.49 501.17 750.42 567.61 650.63C597.307 605.599 637.203 568.204 684.06 541.48C685.39 540.71 686.68 539.98 688.06 539.25C689.69 538.32 691.36 537.43 693.06 536.54C693.49 536.29 693.95 536.06 694.42 535.81C696.05 534.95 697.68 534.09 699.35 533.26C700.21 532.82 701.07 532.37 701.97 531.96C703.75 531.04 705.57 530.14 707.39 529.28C709.21 528.42 710.81 527.66 712.54 526.87L713.15 526.58C714.45 525.97 715.74 525.4 717.06 524.83C718.7 524.06 720.33 523.36 721.99 522.66C726.83 520.56 731.82 518.56 736.91 516.66L738.67 515.99C740.82 515.16 742.98 514.37 745.17 513.6C789.17 498 841.12 488.09 902.32 486.57Z" fill="#3FBDF1"/>
<path d="M613.65 387.09C570.32 419.91 521.51 471.64 489.31 550.51C451 469.41 404.54 418.09 364.58 386.1C388.18 342.1 441.67 252.67 490.33 210.84C490.33 210.84 564 283.61 613.65 387.09Z" fill="#3FBDF1"/>
<path d="M740.8 505.23C738.66 505.98 736.54 506.76 734.42 507.57L732.7 508.23C727.7 510.1 722.82 512.07 718.07 514.13C716.44 514.82 714.84 515.5 713.24 516.25C711.94 516.82 710.67 517.38 709.4 517.97L708.79 518.25C707.1 519.03 705.41 519.81 703.79 520.63C702.17 521.45 700.22 522.34 698.46 523.25C697.59 523.65 696.74 524.09 695.9 524.53C694.26 525.34 692.66 526.18 691.06 527.03C690.61 527.28 690.15 527.49 689.73 527.74C688.1 528.62 686.47 529.49 684.86 530.4C683.53 531.12 682.26 531.83 680.96 532.58C634.978 558.792 595.823 595.474 566.67 639.65C501.51 737.53 498.51 845.51 498.39 855.06L498.24 854.78C490.44 804.1 478.51 760.2 463.51 722.2L464.69 718.33L462.64 719.92C462.64 719.92 462.64 719.92 462.64 719.86C465.57 655.48 478.17 601.65 496.25 556.72L497.94 557.09L496.94 555C528.53 477.63 576.41 426.89 618.94 394.7C669.03 356.8 711.73 344.53 711.73 344.53C734.51 372.69 739.71 458.83 740.8 505.23Z" fill="#3FBDF1"/>
<path d="M452.34 729.35V729.25C452.34 729.25 452.34 729.31 452.34 729.35Z" stroke="#CCDDE2" stroke-width="3.97" stroke-miterlimit="10"/>
<path d="M489.3 551.49C489.04 552.1 488.81 552.7 488.55 553.34C469.06 601.8 455.47 659.85 452.3 729.28C398.2 593.85 308.43 528.28 228.44 496.81C229.87 451.55 236.03 372.86 261.19 324.5C261.19 324.5 303.76 334.67 357.35 377.57C399.63 411.41 448.82 465.69 489.3 551.49Z" stroke="#CCDDE2" stroke-width="3.97" stroke-miterlimit="10"/>
<path d="M490.38 553.75L488.55 553.34C488.81 552.7 489.04 552.1 489.3 551.49C489.66 552.23 490 553 490.38 553.75Z" stroke="#CCDDE2" stroke-width="3.97" stroke-miterlimit="10"/>
<path d="M452.34 729.35V729.25C452.34 729.25 452.34 729.31 452.34 729.35Z" stroke="#CCDDE2" stroke-width="3.97" stroke-miterlimit="10"/>
<path d="M490.38 553.75L488.55 553.34C488.81 552.7 489.04 552.1 489.3 551.49C489.66 552.23 490 553 490.38 553.75Z" stroke="#CCDDE2" stroke-width="3.97" stroke-miterlimit="10"/>
<path opacity="0.9" d="M159.51 715.14C155.98 710.83 152.51 706.42 149.17 701.94C104.209 642.124 74.5916 572.202 62.9099 498.29C59.9999 480.18 60.4499 469.2 60.4499 469.2C60.4499 469.2 138.2 461.32 228.45 496.81C308.45 528.29 398.19 593.81 452.3 729.28V729.39C452.63 730.2 452.97 731.01 453.24 731.85C469.44 772.85 482.3 820.17 490.72 874.85C490.72 874.95 490.72 875.05 490.72 875.16C490.15 875.16 489.61 875.16 489.04 875.16C377.47 875 275.72 830.5 199 757.8C191 750.23 183.21 742.32 175.77 734.13" stroke="#CCDDE2" stroke-width="3.97" stroke-miterlimit="10"/>
<path d="M452.34 729.35V729.25C452.34 729.25 452.34 729.31 452.34 729.35Z" stroke="#CCDDE2" stroke-width="3.97" stroke-miterlimit="10"/>
<path opacity="0.9" d="M918.62 469.23C899.29 696.08 715.29 874.17 490.9 875.08C491.03 864.78 494.26 748.34 564.53 642.77C595.957 595.136 638.168 555.58 687.74 527.31C689.15 526.5 690.52 525.73 691.95 524.96C693.68 523.96 695.44 523.04 697.2 522.09C697.65 521.82 698.14 521.59 698.63 521.32C700.36 520.41 702.09 519.5 703.85 518.63C704.76 518.15 705.67 517.63 706.62 517.24C708.51 516.24 710.43 515.33 712.36 514.42C714.29 513.51 715.97 512.7 717.8 511.86L718.45 511.55C719.82 510.91 721.19 510.31 722.59 509.7C724.32 508.89 726.04 508.15 727.8 507.41C732.92 505.19 738.2 503.07 743.58 501.05L745.44 500.34C747.72 499.47 750 498.62 752.32 497.82C798.93 481.28 853.89 470.84 918.62 469.23Z" stroke="#CCDDE2" stroke-width="3.97" stroke-miterlimit="10"/>
<path d="M620.83 378.62C575 413.33 523.36 468.05 489.3 551.49C448.82 465.69 399.63 411.41 357.35 377.57C382.35 331 438.91 236.42 490.35 192.17C490.38 192.17 568.25 269.15 620.83 378.62Z" stroke="#CCDDE2" stroke-width="3.97" stroke-miterlimit="10"/>
<path d="M189.26 626.44C189.27 626.374 189.27 626.306 189.26 626.24C189.26 626.17 189.26 626.1 189.26 625.97C189.244 625.857 189.244 625.743 189.26 625.63C189.288 625.87 189.335 626.107 189.4 626.34C189.385 626.366 189.365 626.388 189.341 626.405C189.316 626.422 189.289 626.434 189.26 626.44Z" fill="white"/>
<path d="M189.63 691.09C188.087 696.067 186.116 700.902 183.74 705.54C183.06 706.85 182.39 708.13 181.65 709.41C179.124 714.152 176.024 718.565 172.42 722.55C171.78 722.34 171.14 722.07 170.57 721.84C170.44 721.84 170.33 721.74 170.23 721.7C158.58 716.62 149.83 707.09 147.23 696.38C144.91 686.95 147 676.75 142.52 667.9C137 657 122.12 650.18 120.26 637.86C118.58 626.34 128.95 615.77 127.26 604.49C125.34 591.72 109.65 584.15 106.75 571.69C104.9 563.95 106.55 555.02 105.88 547.04C105.106 538.12 103.594 529.28 101.36 520.61C102.44 520.54 103.52 520.51 104.6 520.47C126.6 520.1 148.37 532.47 155.51 549.9C161.27 563.98 158.34 580.24 165.98 593.44C166.443 594.293 166.96 595.114 167.53 595.9C168.532 597.292 169.611 598.627 170.76 599.9L173.19 602.43C173.59 602.83 174.03 603.2 174.43 603.64C174.83 604.08 175.27 604.45 175.68 604.89C179.48 608.52 183.36 612.19 185.88 616.54C186.113 616.917 186.316 617.312 186.49 617.72C186.726 618.115 186.926 618.53 187.09 618.96C187.307 619.399 187.501 619.85 187.67 620.31C187.87 620.81 188.04 621.31 188.2 621.86C188.44 622.67 188.68 623.44 188.84 624.25C188.84 624.45 188.84 624.62 188.91 624.79C188.98 624.96 188.91 624.92 188.91 624.99C188.925 625.056 188.925 625.124 188.91 625.19C188.924 625.305 188.948 625.419 188.98 625.53V625.6C188.984 625.725 189.004 625.85 189.04 625.97C189.04 626.1 189.04 626.17 189.04 626.24C189.05 626.306 189.05 626.374 189.04 626.44V626.51L186.45 664.09C188.11 673.18 192.26 682.24 189.63 691.09Z" fill="white"/>
<path d="M209.19 599.87C210.88 591.72 211.01 583.17 214.85 575.39C221.99 561.05 242.85 550.64 264.72 549.97H265.12C267.12 549.97 269.12 549.97 271.12 550.07C268.857 557.525 267.314 565.18 266.51 572.93C265.77 579.83 267.51 587.55 265.6 594.18C262.53 604.95 246.2 611.49 244.22 622.5C242.46 632.26 253.27 641.39 251.49 651.32C249.57 661.96 234.08 667.85 228.36 677.32C223.74 684.97 225.9 693.75 223.51 701.87C220.71 711.13 211.51 719.38 199.4 723.72C198.62 723.99 197.92 724.26 197.14 724.5C196.73 724.6 196.26 724.77 195.86 724.87C195.72 724.77 195.59 724.63 195.42 724.5C191.51 721.17 187.13 715.55 183.5 709.5L183.77 705.66C186.146 701.022 188.117 696.187 189.66 691.21C192.29 682.36 188.14 673.3 186.66 664.21L189.25 626.63L190.06 625.96C190.356 625.743 190.636 625.505 190.9 625.25C194.9 622.02 199.22 618.92 202.31 615.25C206.15 610.74 207.94 605.79 209.08 600.6" fill="white"/>
<path d="M209.09 600.41C209.09 600.24 209.16 600.08 209.19 599.87L209.09 600.41Z" fill="white"/>
<path d="M209.19 599.84C209.19 600.05 209.12 600.21 209.09 600.38C207.95 605.57 206.16 610.52 202.32 615.03C199.23 618.7 194.92 621.8 190.91 625.03C190.647 625.285 190.366 625.523 190.07 625.74L189.26 626.44C189.274 626.398 189.274 626.352 189.26 626.31C189.229 626.195 189.193 626.081 189.15 625.97C189.134 625.857 189.134 625.743 189.15 625.63V625.56C189.118 625.449 189.095 625.335 189.08 625.22C189.095 625.154 189.095 625.086 189.08 625.02C189.095 624.989 189.103 624.955 189.103 624.92C189.103 624.885 189.095 624.851 189.08 624.82C189.055 624.638 189.018 624.458 188.97 624.28C188.81 623.47 188.57 622.7 188.33 621.89C188.17 621.38 188 620.84 187.8 620.34C187.631 619.88 187.437 619.429 187.22 618.99C187.078 618.551 186.876 618.134 186.62 617.75C186.447 617.342 186.243 616.947 186.01 616.57C183.49 612.22 179.61 608.57 175.81 604.92C175.4 604.48 174.97 604.04 174.56 603.67C174.15 603.3 173.72 602.86 173.32 602.46L170.89 599.93C169.741 598.657 168.663 597.322 167.66 595.93C167.66 595.93 169.9 557 189.8 545.22C208.59 534 209.19 593.27 209.19 599.84Z" fill="white"/>
<path d="M209.09 600.41C209.09 600.24 209.16 600.08 209.19 599.87L209.09 600.41Z" fill="white"/>
<path d="M189.23 626.31V626.47C189.24 626.404 189.24 626.336 189.23 626.27C189.23 626.2 189.23 626.13 189.23 626C189.214 625.887 189.214 625.773 189.23 625.66C189.215 625.876 189.215 626.094 189.23 626.31Z" fill="white"/>
<path d="M256.58 562.43C220.71 601.03 203.85 682.43 197.28 724.43C196.74 727.98 196.28 731.22 195.84 734.14" fill="white"/>
<path d="M259.89 757.79L243.39 855.15C242.999 857.81 241.681 860.246 239.669 862.028C237.656 863.811 235.078 864.824 232.39 864.89H146.13C143.42 864.821 140.823 863.787 138.806 861.974C136.79 860.161 135.486 857.688 135.13 855L119.91 757.79H259.89Z" fill="white"/>
<path d="M275.56 746.93C275.41 749.813 274.177 752.533 272.108 754.547C270.039 756.56 267.286 757.718 264.4 757.79H115.63C112.772 757.721 110.044 756.586 107.981 754.608C105.917 752.63 104.669 749.952 104.48 747.1C103.85 740.16 109.02 734.1 115.63 734.1H264.4C270.94 734.15 276.09 740 275.56 746.93Z" fill="white"/>
<path d="M189.33 626.51C189.328 626.292 189.291 626.076 189.22 625.87L189.33 626.51Z" fill="white"/>
<path d="M115.61 534.91C150.04 579.63 166.24 673.91 172.61 722.58C173.15 726.8 173.61 730.67 174.02 734.13" fill="white"/>
<path d="M192.36 582.43C188.05 595.7 187.84 609.1 188.36 617.59C188.498 620.331 188.788 623.062 189.23 625.77" fill="white"/>
<path d="M189.26 626.44C189.27 626.374 189.27 626.306 189.26 626.24C189.26 626.17 189.26 626.1 189.26 625.97C189.244 625.857 189.244 625.743 189.26 625.63C189.288 625.87 189.335 626.107 189.4 626.34C189.385 626.366 189.365 626.388 189.341 626.405C189.316 626.422 189.289 626.434 189.26 626.44Z" stroke="#CCDDE2" stroke-width="3.97" stroke-miterlimit="10"/>
<path d="M189.63 691.09C188.087 696.067 186.116 700.902 183.74 705.54C183.06 706.85 182.39 708.13 181.65 709.41C179.124 714.152 176.024 718.565 172.42 722.55C171.78 722.34 171.14 722.07 170.57 721.84C170.44 721.84 170.33 721.74 170.23 721.7C158.58 716.62 149.83 707.09 147.23 696.38C144.91 686.95 147 676.75 142.52 667.9C137 657 122.12 650.18 120.26 637.86C118.58 626.34 128.95 615.77 127.26 604.49C125.34 591.72 109.65 584.15 106.75 571.69C104.9 563.95 106.55 555.02 105.88 547.04C105.106 538.12 103.594 529.28 101.36 520.61C102.44 520.54 103.52 520.51 104.6 520.47C126.6 520.1 148.37 532.47 155.51 549.9C161.27 563.98 158.34 580.24 165.98 593.44C166.443 594.293 166.96 595.114 167.53 595.9C168.532 597.292 169.611 598.627 170.76 599.9L173.19 602.43C173.59 602.83 174.03 603.2 174.43 603.64C174.83 604.08 175.27 604.45 175.68 604.89C179.48 608.52 183.36 612.19 185.88 616.54C186.113 616.917 186.316 617.312 186.49 617.72C186.726 618.115 186.926 618.53 187.09 618.96C187.307 619.399 187.501 619.85 187.67 620.31C187.87 620.81 188.04 621.31 188.2 621.86C188.44 622.67 188.68 623.44 188.84 624.25C188.84 624.45 188.84 624.62 188.91 624.79C188.98 624.96 188.91 624.92 188.91 624.99C188.925 625.056 188.925 625.124 188.91 625.19C188.924 625.305 188.948 625.419 188.98 625.53V625.6C188.984 625.725 189.004 625.85 189.04 625.97V625.97C189.04 626.1 189.04 626.17 189.04 626.24C189.05 626.306 189.05 626.374 189.04 626.44V626.51L186.45 664.09C188.11 673.18 192.26 682.24 189.63 691.09Z" stroke="#CCDDE2" stroke-width="3.97" stroke-miterlimit="10"/>
<path d="M209.19 599.87C210.88 591.72 211.01 583.17 214.85 575.39C221.99 561.05 242.85 550.64 264.72 549.97H265.12C267.12 549.97 269.12 549.97 271.12 550.07C268.857 557.525 267.314 565.18 266.51 572.93C265.77 579.83 267.51 587.55 265.6 594.18C262.53 604.95 246.2 611.49 244.22 622.5C242.46 632.26 253.27 641.39 251.49 651.32C249.57 661.96 234.08 667.85 228.36 677.32C223.74 684.97 225.9 693.75 223.51 701.87C220.71 711.13 211.51 719.38 199.4 723.72C198.62 723.99 197.92 724.26 197.14 724.5C196.73 724.6 196.26 724.77 195.86 724.87C195.72 724.77 195.59 724.63 195.42 724.5C191.51 721.17 187.13 715.55 183.5 709.5L183.77 705.66C186.146 701.022 188.117 696.187 189.66 691.21C192.29 682.36 188.14 673.3 186.66 664.21L189.25 626.63L190.06 625.96C190.356 625.743 190.636 625.505 190.9 625.25C194.9 622.02 199.22 618.92 202.31 615.25C206.15 610.74 207.94 605.79 209.08 600.6" stroke="#CCDDE2" stroke-width="3.97" stroke-miterlimit="10"/>
<path d="M209.09 600.41C209.09 600.24 209.16 600.08 209.19 599.87" stroke="#CCDDE2" stroke-width="3.97" stroke-miterlimit="10"/>
<path d="M209.19 599.84C209.19 600.05 209.12 600.21 209.09 600.38C207.95 605.57 206.16 610.52 202.32 615.03C199.23 618.7 194.92 621.8 190.91 625.03C190.647 625.286 190.366 625.523 190.07 625.74L189.26 626.44C189.274 626.398 189.274 626.352 189.26 626.31C189.229 626.195 189.193 626.081 189.15 625.97V625.97C189.134 625.857 189.134 625.743 189.15 625.63V625.56C189.118 625.449 189.095 625.335 189.08 625.22C189.095 625.154 189.095 625.086 189.08 625.02C189.095 624.989 189.103 624.955 189.103 624.92C189.103 624.885 189.095 624.851 189.08 624.82C189.055 624.638 189.018 624.458 188.97 624.28C188.81 623.47 188.57 622.7 188.33 621.89C188.17 621.38 188 620.84 187.8 620.34C187.631 619.88 187.437 619.429 187.22 618.99C187.078 618.551 186.876 618.134 186.62 617.75C186.447 617.342 186.243 616.947 186.01 616.57C183.49 612.22 179.61 608.57 175.81 604.92C175.4 604.48 174.97 604.04 174.56 603.67C174.15 603.3 173.72 602.86 173.32 602.46L170.89 599.93C169.741 598.657 168.663 597.322 167.66 595.93C167.66 595.93 169.9 557 189.8 545.22C208.59 534 209.19 593.27 209.19 599.84Z" stroke="#CCDDE2" stroke-width="3.97" stroke-miterlimit="10"/>
<path d="M209.09 600.41C209.09 600.24 209.16 600.08 209.19 599.87" stroke="#CCDDE2" stroke-width="3.97" stroke-miterlimit="10"/>
<path d="M189.23 626.31V626.47C189.24 626.404 189.24 626.336 189.23 626.27C189.23 626.2 189.23 626.13 189.23 626C189.214 625.887 189.214 625.773 189.23 625.66C189.215 625.876 189.215 626.094 189.23 626.31V626.31Z" stroke="#CCDDE2" stroke-width="3.97" stroke-miterlimit="10"/>
<path d="M256.58 562.43C220.71 601.03 203.85 682.43 197.28 724.43C196.74 727.98 196.28 731.22 195.84 734.14" stroke="#CCDDE2" stroke-width="3.97" stroke-miterlimit="10"/>
<path d="M259.89 757.79L243.39 855.15C242.999 857.81 241.681 860.246 239.669 862.028C237.656 863.811 235.078 864.824 232.39 864.89H146.13C143.42 864.821 140.823 863.787 138.806 861.974C136.79 860.161 135.486 857.688 135.13 855L119.91 757.79H259.89Z" stroke="#CCDDE2" stroke-width="3.97" stroke-miterlimit="10"/>
<path d="M275.56 746.93C275.41 749.813 274.177 752.533 272.108 754.547C270.039 756.56 267.286 757.718 264.4 757.79H115.63C112.772 757.721 110.044 756.586 107.981 754.608C105.917 752.63 104.669 749.952 104.48 747.1V747.1C103.85 740.16 109.02 734.1 115.63 734.1H264.4C270.94 734.15 276.09 740 275.56 746.93Z" stroke="#CCDDE2" stroke-width="3.97" stroke-miterlimit="10"/>
<path d="M189.33 626.51C189.328 626.292 189.291 626.076 189.22 625.87L189.33 626.51Z" stroke="#CCDDE2" stroke-width="3.97" stroke-miterlimit="10"/>
<path d="M115.61 534.91C150.04 579.63 166.24 673.91 172.61 722.58C173.15 726.8 173.61 730.67 174.02 734.13" stroke="#CCDDE2" stroke-width="3.97" stroke-miterlimit="10"/>
<path d="M192.36 582.43C188.05 595.7 187.84 609.1 188.36 617.59C188.498 620.331 188.788 623.062 189.23 625.77" stroke="#CCDDE2" stroke-width="3.97" stroke-miterlimit="10"/>
<path d="M752.32 497.82C750 498.62 747.72 499.47 745.44 500.34L743.58 501.05C738.2 503.05 732.92 505.19 727.8 507.41C726.04 508.15 724.32 508.89 722.59 509.7C721.19 510.31 719.82 510.91 718.45 511.55L717.8 511.86C715.97 512.7 714.15 513.54 712.36 514.42C710.57 515.3 708.51 516.27 706.62 517.24C705.62 517.68 704.76 518.15 703.85 518.63C702.09 519.5 700.36 520.41 698.63 521.32C698.14 521.59 697.63 521.82 697.2 522.09C695.44 523.04 693.68 523.98 691.95 524.96C690.52 525.73 689.15 526.5 687.74 527.31C638.168 555.58 595.957 595.136 564.53 642.77C494.26 748.34 491.03 864.77 490.9 875.08L490.73 874.78C482.32 820.13 469.45 772.78 453.28 731.78L454.55 727.61L452.34 729.33C452.34 729.33 452.34 729.33 452.34 729.26C455.51 659.83 469.1 601.78 488.59 553.32L490.42 553.73C490.06 552.98 489.7 552.21 489.34 551.47C523.4 468.03 575.04 413.31 620.87 378.6C674.87 337.72 720.94 324.48 720.94 324.48C745.54 354.88 751.14 447.78 752.32 497.82Z" stroke="#CCDDE2" stroke-width="3.97" stroke-miterlimit="10"/>
<path d="M755.59 857C748.417 855.56 741.39 853.84 734.51 851.84C706.29 843.59 673.51 829.51 662.27 799.91C659.457 792.262 658.571 784.04 659.689 775.968C660.806 767.897 663.895 760.225 668.68 753.63C673.75 746.597 680.878 741.31 689.08 738.5C706.93 732.73 726.68 741.72 739.92 755.02C753.16 768.32 761.68 785.44 772.05 801.08C762.67 780.08 753.15 758.47 751.86 735.51C750.86 717.61 755.72 698.2 768.06 684.75C779.42 672.37 805.98 662.68 821.62 671.75C831.94 677.75 836.06 690.51 837.83 702.31C842.69 734.6 836.45 767.41 830.24 799.47C834.41 782.33 838.89 765.03 847.39 749.57C855.89 734.11 868.92 720.45 885.61 714.72C897.3 710.72 911.18 711.15 920.97 718.72C930.1 725.72 934.18 737.65 935.44 749.11C937.54 768.33 933.02 787.82 925.24 805.51C896.21 871.54 815.7 869 755.59 857Z" fill="white"/>
<path d="M821.09 824.31C821.09 824.31 865.84 836.74 881.64 774.54L821.09 824.31Z" fill="white"/>
<path d="M801.18 718.14C788.74 746.34 801.18 830.95 801.18 830.95V718.14Z" fill="white"/>
<path d="M759.71 822.39C757.84 822.07 739.89 819.56 724.59 812.53C712.74 807.09 702.47 798.93 702.47 786.99" fill="white"/>
<path d="M728.18 787C728.18 787 710.69 807.39 724.59 812.54L728.18 787Z" fill="white"/>
<path d="M716.57 831.09C719.06 827.63 732.01 834.57 740.47 818.24L716.57 831.09Z" fill="white"/>
<path d="M795.65 755.47C791.23 752.15 779.65 755.47 777.95 728.92L795.65 755.47Z" fill="white"/>
<path d="M797.58 780.35C797.58 780.35 816.94 773.35 816.94 758.2L797.58 780.35Z" fill="white"/>
<path d="M839.19 824.67C839.19 824.67 849.29 798.6 853.44 786.99L839.19 824.67Z" fill="white"/>
<path d="M870.55 799.76C870.55 799.76 881.64 808.55 894.91 794.45L870.55 799.76Z" fill="white"/>
<path d="M870.55 787C870.55 787 863.39 783.89 866.71 766L870.55 787Z" fill="white"/>
<path d="M755.59 857C748.35 856 741.38 853.85 734.51 851.84C706.29 843.59 673.51 829.51 662.27 799.91C659.457 792.262 658.571 784.04 659.689 775.968C660.806 767.897 663.895 760.225 668.68 753.63C673.75 746.597 680.878 741.31 689.08 738.5C706.93 732.73 726.68 741.72 739.92 755.02C753.16 768.32 761.68 785.44 772.05 801.08C762.67 780.08 753.15 758.47 751.86 735.51C750.86 717.61 755.72 698.2 768.06 684.75C779.42 672.37 805.98 662.68 821.62 671.75C831.94 677.75 836.06 690.51 837.83 702.31C842.69 734.6 836.45 767.41 830.24 799.47C834.41 782.33 838.89 765.03 847.39 749.57C855.89 734.11 868.92 720.45 885.61 714.72C897.3 710.72 911.18 711.15 920.97 718.72C930.1 725.72 934.18 737.65 935.44 749.11C937.54 768.33 933.29 787.95 925.24 805.51C895.74 869.8 814.61 864.94 755.59 857Z" stroke="#CCDDE2" stroke-width="3.97" stroke-miterlimit="10"/>
<path d="M821.09 824.31C821.09 824.31 865.84 836.74 881.64 774.54" stroke="#CCDDE2" stroke-width="3.97" stroke-miterlimit="10"/>
<path d="M801.18 718.14C788.74 746.34 801.18 830.95 801.18 830.95" stroke="#CCDDE2" stroke-width="3.97" stroke-miterlimit="10"/>
<path d="M759.71 822.39C757.84 822.07 739.89 819.56 724.59 812.53C712.74 807.09 702.47 798.93 702.47 786.99" stroke="#CCDDE2" stroke-width="3.97" stroke-miterlimit="10"/>
<path d="M728.18 787C728.18 787 710.69 807.39 724.59 812.54" stroke="#CCDDE2" stroke-width="3.97" stroke-miterlimit="10"/>
<path d="M716.57 831.09C719.06 827.63 732.01 834.57 740.47 818.24" stroke="#CCDDE2" stroke-width="3.97" stroke-miterlimit="10"/>
<path d="M795.65 755.47C791.23 752.15 779.65 755.47 777.95 728.92" stroke="#CCDDE2" stroke-width="3.97" stroke-miterlimit="10"/>
<path d="M797.58 780.35C797.58 780.35 816.94 773.35 816.94 758.2" stroke="#CCDDE2" stroke-width="3.97" stroke-miterlimit="10"/>
<path d="M839.19 824.67C839.19 824.67 849.29 798.6 853.44 786.99" stroke="#CCDDE2" stroke-width="3.97" stroke-miterlimit="10"/>
<path d="M870.55 799.76C870.55 799.76 881.64 808.55 894.91 794.45" stroke="#CCDDE2" stroke-width="3.97" stroke-miterlimit="10"/>
<path d="M870.55 787C870.55 787 863.39 783.89 866.71 766" stroke="#CCDDE2" stroke-width="3.97" stroke-miterlimit="10"/>
<path d="M873.6 631.43C882.541 639.134 890.522 647.887 897.37 657.5C909.959 674.711 917.081 695.309 917.81 716.62" stroke="#CCDDE2" stroke-width="3.97" stroke-miterlimit="10"/>
<path d="M561.73 278.88C579.73 268.04 598.5 258.41 618.46 251.61C668.23 234.61 723.72 238.38 763.15 275.69C797.33 308 813.49 356 816.79 402C816.79 402.67 816.9 403.38 816.93 404.09C818.44 427.79 817.2 453.96 817.03 480.15" stroke="#CCDDE2" stroke-width="3.97" stroke-miterlimit="10"/>
<path d="M169.38 478.7C173.89 449.91 168.38 422.83 165.38 393.2C157.66 316 182.21 223.63 271.14 212.08C319.46 205.78 358.68 223.83 391.35 258.45C398.69 266.22 406.03 275.35 413.8 284.17" stroke="#CCDDE2" stroke-width="3.97" stroke-miterlimit="10"/>
<path d="M134.7 733.66C134.7 733.66 67.3498 704 74.0898 648.27C75.9698 632.54 83.3798 618.47 92.7398 605.54" stroke="#CCDDE2" stroke-width="3.97" stroke-miterlimit="10"/>
<path d="M743 770.82C740.44 768.973 737.773 767.22 735 765.56C707.34 749.19 669.65 742.84 638.05 740.94C636.12 740.8 634.22 740.7 632.34 740.62C629.849 740.511 627.413 739.859 625.2 738.71C622.907 737.553 620.915 735.879 619.38 733.82C617.83 727.728 615.967 721.72 613.8 715.82L609.36 695.82C607.704 690.035 606.405 684.154 605.47 678.21C600.87 648.14 597.47 610.77 596.27 596.78C596.414 596.842 596.565 596.885 596.72 596.91L610.45 601.31C610.5 601.306 610.55 601.306 610.6 601.31L615.47 602.74C634.35 608.1 654.16 612.12 673.83 612.55C692.37 612.94 712.71 609.9 728.55 599.64C729.883 598.8 731.177 597.9 732.43 596.94C744.65 587.74 753.14 573.62 757.95 559.29C766.8 532.785 768.711 504.454 763.5 477C762.022 469.441 759.945 462.011 757.29 454.78C750.29 435.53 740.18 417.49 731.5 398.78C729.5 394.42 726.64 389.85 726.29 385.01C725.87 379.24 728.83 373.69 729.76 368.08C730.844 361.339 731.346 354.517 731.26 347.69C731.247 339.592 729.697 331.569 726.69 324.05C724.1 317.73 719.5 307.13 711.33 307.52C708.71 299.14 704.33 289.44 696.62 288.35C694.619 288.043 692.577 288.539 690.94 289.73C690.375 288.919 689.764 288.141 689.11 287.4C685.89 283.78 679.8 280.52 674.91 282.4C665.21 286.24 669.65 299.59 674.46 309.72C671.984 309.187 669.444 309.019 666.92 309.22C661.27 309.72 654.73 312 652.54 317.44C651.35 320.44 651.77 325.85 654.81 327.55C658.67 329.66 663.41 328.26 667.27 330.24C671.58 332.46 673.27 338.41 672.64 342.91C672.518 344.674 671.814 346.348 670.64 347.67C663.82 354.49 659.14 335.67 656.55 332.57C653.03 328.34 647.87 329.11 644.2 332.68C636.95 339.68 640.1 353.78 643.14 362.24C646.44 371.5 650.73 381.24 657.58 388.45C668.97 400.4 670.22 419.45 673.23 434.86C674.47 441.23 675.66 447.66 676.62 454.08C678.52 466.54 679.62 479.08 678.62 491.66C678.367 495.113 677.403 498.477 675.788 501.54C674.173 504.602 671.943 507.298 669.236 509.458C666.53 511.618 663.406 513.195 660.062 514.09C656.717 514.985 653.223 515.179 649.8 514.66C641.65 513.42 632.11 511.94 621.95 510.35C621.95 510.35 622.03 510.27 622.08 510.25C608.23 505.54 595.98 504.96 583.79 504.32C549.4 499 518.52 494 518.52 494C517.817 493.87 517.181 493.5 516.722 492.952C516.262 492.405 516.007 491.715 516 491L515.58 452.82C517.93 455.7 523.03 456.1 526.15 454.43C527.39 453.798 528.41 452.805 529.076 451.583C529.741 450.36 530.022 448.965 529.88 447.58C531.903 447.563 533.891 447.052 535.67 446.09C536.198 445.795 536.703 445.461 537.18 445.09C538.167 444.205 538.963 443.128 539.519 441.924C540.074 440.72 540.377 439.415 540.41 438.09C540.453 437.358 540.416 436.624 540.3 435.9C540.3 435.63 540.22 435.37 540.17 435.08C540.06 434.52 539.93 433.97 539.77 433.38C539.69 433.04 539.59 432.7 539.48 432.38C539.22 431.38 538.93 430.38 538.71 429.38C538.826 429.395 538.944 429.395 539.06 429.38C540.047 429.324 541.027 429.184 541.99 428.96C542.905 428.742 543.799 428.44 544.66 428.06C545.143 427.846 545.614 427.606 546.07 427.34C546.149 427.313 546.22 427.268 546.28 427.21C547.054 426.736 547.786 426.197 548.47 425.6C548.702 425.41 548.922 425.206 549.13 424.99C549.52 424.623 549.891 424.236 550.24 423.83C550.686 423.307 551.104 422.759 551.49 422.19C551.679 421.948 551.846 421.691 551.99 421.42C553.378 419.193 554.391 416.754 554.99 414.2C555.04 413.96 555.1 413.72 555.15 413.49C557.15 403.97 554.15 393.1 545.79 389.55C544.12 388.84 538.2 388.15 538.2 385.64C538.203 385.461 538.23 385.282 538.28 385.11C538.271 385.074 538.271 385.036 538.28 385C538.438 384.627 538.665 384.288 538.95 384C539.08 383.84 539.26 383.68 539.42 383.52C539.77 383.21 540.16 382.92 540.53 382.62C540.91 382.369 541.274 382.095 541.62 381.8C541.767 381.678 541.907 381.547 542.04 381.41C542.3 381.12 542.57 380.83 542.81 380.54C543.048 380.254 543.269 379.953 543.47 379.64C543.68 379.32 543.89 379 544.08 378.64C544.289 378.325 544.466 377.99 544.61 377.64C544.911 377.047 545.159 376.427 545.35 375.79C545.687 374.742 545.899 373.658 545.98 372.56C545.98 372.17 545.98 371.77 545.98 371.37C545.98 362.59 538.82 353.5 529.77 352.54C528.307 352.38 526.826 352.554 525.44 353.05C524.759 353.286 524.091 353.56 523.44 353.87L522.44 354.34C521.76 354.66 521.07 355 520.36 355.34C519.761 355.625 519.112 355.788 518.45 355.82C518.298 355.815 518.148 355.795 518 355.76L517.71 355.68C517.5 355.634 517.308 355.526 517.16 355.37C516.984 355.242 516.838 355.079 516.73 354.89C516.64 354.706 516.576 354.511 516.54 354.31C516.533 354.298 516.529 354.284 516.529 354.27C516.529 354.256 516.533 354.242 516.54 354.23C516.49 353.997 516.466 353.759 516.47 353.52C516.469 353.026 516.54 352.534 516.68 352.06C516.962 351.027 517.104 349.961 517.1 348.89C517.099 348.502 517.072 348.115 517.02 347.73C516.969 347.196 516.889 346.665 516.78 346.14C515.801 342.271 513.475 338.878 510.22 336.57C501.05 330.09 483.86 330.06 479.12 342.07C479.02 342.25 478.97 342.44 478.89 342.62C478.28 341.91 477.67 341.17 477.06 340.43C476.638 340.158 476.197 339.918 475.74 339.71C469.39 336.94 460.3 338.13 455.67 343.55C451.83 348.05 450.57 355 453.98 360.1C452.068 357.63 449.475 355.774 446.52 354.76C446.873 355.749 447.343 356.693 447.92 357.57C447.649 357.202 447.359 356.848 447.05 356.51C446.81 356.24 446.57 356 446.33 355.77C446.09 355.54 445.75 355.21 445.46 354.97C445.17 354.73 444.85 354.47 444.54 354.23C438.59 349.87 429.83 349.42 424.28 354.87C419.94 359.13 419.04 365.02 420.58 370.73C422.12 376.44 425.81 380.41 428.58 385.33C419.19 387.69 411.68 398.1 414.64 407.86C415.258 409.879 416.341 411.725 417.802 413.249C419.262 414.774 421.06 415.935 423.05 416.64C423.763 416.819 424.488 416.942 425.22 417.01C425.465 417.035 425.701 417.11 425.915 417.231C426.13 417.352 426.317 417.515 426.465 417.711C426.613 417.907 426.719 418.132 426.777 418.371C426.835 418.61 426.842 418.858 426.8 419.1C426.651 419.756 426.574 420.427 426.57 421.1C426.576 422.711 426.997 424.293 427.792 425.695C428.587 427.096 429.73 428.269 431.11 429.1C431.315 429.214 431.494 429.369 431.637 429.556C431.78 429.742 431.883 429.956 431.94 430.183C431.997 430.411 432.007 430.648 431.969 430.879C431.932 431.111 431.847 431.332 431.72 431.53C430.33 433.507 429.513 435.83 429.359 438.242C429.206 440.655 429.722 443.062 430.85 445.2C433.94 451.39 441.51 456.76 448.65 454.64C450.947 453.944 452.935 452.478 454.28 450.49C454.424 450.339 454.548 450.172 454.65 449.99C454.676 449.93 454.713 449.876 454.76 449.83C455.788 448.295 456.471 446.555 456.76 444.73C458.519 447.519 460.488 450.17 462.65 452.66L463.95 454.11L460 478.47L459.42 482.86C459.206 484.379 458.45 485.769 457.293 486.776C456.136 487.783 454.654 488.338 453.12 488.34C452.25 488.34 451.35 488.34 450.48 488.34C448.71 488.34 446.96 488.39 445.22 488.44C439.93 488.57 434.66 488.81 429.4 489.13C425.4 489.39 421.49 489.68 417.56 490.03C415.56 490.19 413.64 490.37 411.66 490.58C409.68 490.79 407.72 490.98 405.76 491.19C401.93 491.62 398.07 492.06 394.23 492.57C389.6 493.18 385 493.81 380.37 494.47C373.13 495.53 365.91 496.69 358.66 497.94C351.6 499.16 344.57 500.43 337.51 501.72C327.59 503.55 317.57 505.08 307.51 506.72C304.868 507.147 302.166 507.005 299.584 506.304C297.002 505.603 294.598 504.359 292.535 502.655C290.472 500.951 288.796 498.827 287.619 496.424C286.442 494.021 285.791 491.395 285.71 488.72C284.58 455.72 303.27 395.53 303.27 395.53C303.7 390.85 309.27 387.53 312.53 384.87C321.86 377.5 327.37 364.3 330.59 353.19C332.87 345.26 335.03 333.94 328.32 327.44C324.64 323.87 319.48 323.1 315.97 327.33C313.38 330.45 308.7 349.25 301.87 342.43C300.696 341.108 299.992 339.434 299.87 337.67C299.28 333.18 300.87 327.23 305.23 325C309.09 323 313.83 324.42 317.69 322.31C320.69 320.61 321.15 315.17 319.96 312.2C317.77 306.76 311.24 304.48 305.58 303.98C303.056 303.779 300.516 303.947 298.04 304.48C302.85 294.35 307.3 281 297.59 277.17C292.7 275.24 286.59 278.49 283.39 282.11C282.74 282.851 282.132 283.629 281.57 284.44C279.927 283.253 277.884 282.757 275.88 283.06C268.13 284.15 263.8 293.85 261.18 302.24C253.09 301.84 248.51 312.24 245.89 318.55C242.921 325.818 241.344 333.579 241.24 341.43C240.99 349.781 241.58 358.137 243 366.37C243.66 369.92 244.85 373.3 245.7 376.77C246.63 380.55 245.62 384.3 244.25 387.85C238.88 401.44 231.31 414.16 225.63 427.65C219.471 441.927 214.534 456.699 210.87 471.81C203.81 501.64 202.36 533.27 210.61 563.02C226.21 619.24 305.25 600.78 350.53 585.02C369.46 578.44 382.53 572.3 382.53 572.3C382.53 572.3 382.63 576.66 382.63 584.04V585.04C382.58 595.04 381.71 674.82 368.27 733.4L367.82 734.17C367.93 734.09 368.14 734.09 368.27 734.8C367.532 736.4 366.35 737.754 364.864 738.7C363.378 739.647 361.652 740.147 359.89 740.14C327.71 740.01 192.2 744.58 217.89 832.14C222.7 848.59 235.26 859.14 252.89 865.38C266.89 870.38 284.1 872.55 303.16 872.71H303.29C266.03 879.77 257.36 935.2 298.93 943.58C314.93 946.8 327.6 936.44 341.98 932.02C350.198 929.59 358.755 928.503 367.32 928.8C372.909 928.934 378.483 929.455 384 930.36C444.411 940.251 505.713 943.583 566.84 940.3C608.17 938.03 650.3 932.84 689.52 919.01C719.08 908.57 751.52 890.3 766.08 862.01C771.239 852.053 773.905 840.994 773.85 829.78C773.81 803.13 761.49 784.17 743 770.82Z" fill="white"/>
<path d="M119.42 863.88L117.91 862.45" stroke="#CCDDE2" stroke-width="3.97" stroke-miterlimit="10"/>
<path d="M613.83 714.36L609.38 694.31C607.726 688.525 606.43 682.644 605.5 676.7C600.9 646.63 597.5 609.27 596.29 595.28L610.63 599.85L605.63 588.72C605.63 588.72 589.16 533.29 622.11 508.88C598.28 500.77 579.19 504.94 556.89 499.81C548.3 497.81 539.23 496.06 529.21 494.42L521.96 493.15C521.67 512.85 507.96 517.32 496.68 519.46C468.91 524.78 449.68 504.52 450.48 486.88C419.65 487.23 389.18 491.3 358.67 496.48C362.61 508.04 370.91 542.68 347.56 583.64L350.56 583.54C369.49 576.95 382.56 570.82 382.56 570.82C382.56 570.82 382.67 575.18 382.67 582.56V583.56C382.62 593.5 381.75 673.34 368.31 731.91C367.31 733.82 368.09 731.47 368.31 733.59C367.494 735.218 366.934 736.962 366.65 738.76L367.3 736.17C363.68 741.36 372.74 747.65 385.83 750.82C420.05 759.18 608.68 773.82 619.33 738.76C619.957 736.669 619.978 734.443 619.39 732.34C617.842 726.256 615.987 720.255 613.83 714.36Z" fill="#353642"/>
<path d="M367.31 927.29C358.755 927.004 350.209 928.094 342 930.52C327.61 934.93 314.92 945.3 298.94 942.07C257.37 933.69 266.05 878.26 303.31 871.2C306.88 871.12 310.45 871.1 313.99 871.1H314.23C331.39 871.1 348.11 871.55 361.83 866.81C360.54 868 327.11 897.65 367.31 927.29Z" fill="#3FBDF1"/>
<path d="M521.93 493.11V493.16C521.64 512.86 507.93 517.33 496.65 519.47C468.88 524.79 449.65 504.53 450.45 486.89" stroke="black" stroke-width="3.97" stroke-miterlimit="10"/>
<path d="M303.34 871.2C266.08 878.26 257.4 933.69 298.97 942.07C314.97 945.3 327.64 934.93 342.03 930.52C350.245 928.092 358.798 927.001 367.36 927.29C372.937 927.443 378.497 927.981 384 928.9C444.408 938.811 505.711 942.164 566.84 938.9C608.17 936.62 650.29 931.44 689.51 917.61C719.08 907.16 751.51 888.89 766.07 860.61C771.232 850.651 773.899 839.587 773.84 828.37C773.84 801.69 761.49 782.73 743.04 769.37C740.47 767.52 737.8 765.78 735.04 764.11C707.38 747.74 669.7 741.39 638.1 739.49C636.17 739.36 634.26 739.25 632.39 739.17C629.899 739.068 627.462 738.419 625.25 737.27C622.954 736.118 620.96 734.443 619.43 732.38C617.941 730.425 616.893 728.169 616.36 725.77L613.85 714.37L609.4 694.32L605.5 676.7C600.9 646.63 597.5 609.27 596.29 595.28" stroke="black" stroke-width="3.97" stroke-miterlimit="10"/>
<path d="M651.17 844.31C638.84 872.5 608.35 862.85 574.85 842.56C554.06 829.97 536.32 828.18 525.85 828.56C540.61 827.24 553.51 822.69 557.14 806C560.07 792.44 552.43 780 539.21 776C570.99 774.6 603.6 777 629.46 797C629.48 797 663.52 816.09 651.17 844.31Z" fill="#3FBDF1"/>
<path d="M539 427.8C538.887 427.815 538.773 427.815 538.66 427.8C538.97 429.36 539.56 431.03 539.95 432.69C540.263 433.945 540.398 435.238 540.35 436.53C539.93 442.58 535.64 445.86 529.82 446.02C529.967 447.408 529.691 448.809 529.027 450.037C528.363 451.265 527.342 452.263 526.1 452.9C522.98 454.54 517.87 454.17 515.52 451.28C512.74 447.93 514.12 443.77 515.81 440.1C516.42 438.81 517.03 437.59 517.53 436.48C518.14 435.1 518.67 433.73 519.14 432.33C520.804 427.149 522.094 421.856 523 416.49C524.106 411.07 524.838 405.58 525.19 400.06C524.82 398.72 525.06 396.78 524.53 395.38C523.759 393.219 522.367 391.334 520.53 389.96C516.73 387.16 511.67 387.34 507.63 384.86C503.972 382.582 501.086 379.254 499.35 375.31C499.01 374.49 498.69 373.43 498.21 372.51C497.996 372.01 497.671 371.566 497.26 371.21C495.44 369.68 494.38 372.38 493.26 373.43C492.112 374.49 490.751 375.294 489.268 375.787C487.785 376.28 486.214 376.452 484.66 376.29C483.485 376.135 482.341 375.798 481.27 375.29C480.483 374.862 479.748 374.346 479.08 373.75C478.286 372.977 477.362 372.351 476.35 371.9C474.45 371.19 474.35 374.33 474.08 375.42C473.899 376.362 473.508 377.251 472.934 378.02C472.361 378.789 471.621 379.418 470.77 379.86C469.742 380.365 468.615 380.635 467.47 380.65C466.136 380.704 464.802 380.524 463.53 380.12C462.301 379.755 461.132 379.213 460.06 378.51C459.867 378.381 459.643 378.307 459.411 378.299C459.179 378.291 458.95 378.348 458.749 378.464C458.548 378.579 458.383 378.749 458.274 378.953C458.164 379.158 458.115 379.389 458.13 379.62C458.5 389.96 448.83 393.56 444.86 394.62C443.526 411.685 447.696 428.729 456.76 443.25C456.425 445.351 455.569 447.335 454.27 449.02C447.74 450.66 440.2 448.88 437.37 443.25C434.37 437.25 434.78 428.94 439.44 424.66C436.21 424.16 435.31 419.39 437.16 416.59C437.32 416.32 437.39 416.16 437.29 415.9C436.89 414.81 432.14 413.9 430.84 413.5C428.985 412.838 427.31 411.752 425.949 410.328C424.588 408.905 423.578 407.183 423 405.3C420.25 396.23 427.23 386.55 435.95 384.36C433.36 379.78 429.95 376.08 428.5 370.79C427.05 365.5 427.87 360 431.91 356C433.553 354.437 435.561 353.309 437.751 352.719C439.941 352.129 442.243 352.095 444.45 352.62C445.736 353.555 446.876 354.677 447.83 355.95C447.243 355.082 446.772 354.14 446.43 353.15C449.389 354.155 451.985 356.013 453.89 358.49C450.48 353.39 451.75 346.43 455.58 341.93C460.21 336.51 469.31 335.32 475.65 338.1C476.109 338.307 476.553 338.544 476.98 338.81C477.58 339.56 478.19 340.3 478.8 341.01C478.867 340.818 478.947 340.631 479.04 340.45C480.327 341.773 481.545 343.162 482.69 344.61C486.81 332.89 503.18 332.86 511.83 338.97C513.867 340.424 515.535 342.335 516.7 344.55C517.138 346.497 517.101 348.521 516.59 350.45C516.06 352.3 516.48 353.7 517.67 354.1C518.565 354.318 519.509 354.197 520.32 353.76C523.49 352.33 526.11 350.58 529.79 350.98C541.79 352.25 550.54 367.85 543.43 378.03C543.008 378.662 542.529 379.255 542 379.8C541 380.8 538.75 381.97 538.25 383.4C538.236 383.435 538.236 383.475 538.25 383.51C537.35 386.51 543.99 387.18 545.76 387.95C561.44 394.56 558.13 426.8 539 427.8Z" fill="#3FBDF1"/>
<path d="M266.4 346.49C262.67 338.55 265.4 327.42 269.65 319.01C272.9 312.48 270.31 302.01 262.01 300.84C253.39 299.68 248.57 310.55 245.88 317.11C242.905 324.38 241.324 332.145 241.22 340C240.999 348.354 241.612 356.708 243.05 364.94C243.71 368.48 244.9 371.87 245.74 375.33C246.67 379.11 245.66 382.87 244.29 386.41C238.92 400 231.36 412.72 225.67 426.21C219.52 440.489 214.586 455.261 210.92 470.37C203.86 500.2 202.4 531.83 210.65 561.58C226.25 617.8 305.3 599.34 350.57 583.58C369.5 576.99 382.57 570.86 382.57 570.86C382.57 570.86 382.68 575.22 382.68 582.6C382.68 582.94 382.68 583.29 382.68 583.6C382.74 613.27 381.55 687.82 368.77 732.11C368.217 734.02 367.055 735.698 365.461 736.887C363.867 738.077 361.929 738.713 359.94 738.7C327.76 738.57 192.26 743.14 217.94 830.65C226.62 860.21 260.23 870.84 303.17 871.21H303.36C306.85 871.21 310.42 871.21 314.04 871.11H314.28C330.231 870.557 346.139 869.118 361.93 866.8C417.87 858.92 477.39 842.1 515.84 829.98C518.057 829.396 520.323 829.017 522.61 828.85C523.56 828.74 524.61 828.66 525.79 828.61H525.89C536.34 828.19 554.08 829.98 574.89 842.61C608.39 862.9 638.89 872.55 651.21 844.36C663.53 816.17 629.48 797 629.48 797C603.62 777 571.01 774.63 539.23 776C529.42 776.43 519.66 777.25 510.23 778C472.49 781.007 434.743 784.007 396.99 787L347.53 791" stroke="black" stroke-width="3.97" stroke-miterlimit="10"/>
<path d="M279.85 341.19C279.85 341.19 274.46 330.3 281.13 313.27C283.88 306.27 287.05 297.8 285.75 290.13C285.343 287.29 283.834 284.725 281.55 282.99C279.908 281.801 277.863 281.309 275.86 281.62C268.12 282.7 263.78 292.41 261.16 300.79" stroke="black" stroke-width="3.97" stroke-miterlimit="10"/>
<path d="M291.11 334.87C291.11 334.87 285.99 326.2 292.97 312.87C294.14 310.65 296.12 307.1 297.97 303.06C302.79 292.93 307.23 279.58 297.52 275.74C292.63 273.81 286.52 277.06 283.32 280.69C282.67 281.428 282.062 282.203 281.5 283.01" stroke="black" stroke-width="3.97" stroke-miterlimit="10"/>
<path d="M298 303C300.475 302.462 303.016 302.294 305.54 302.5C311.2 303 317.73 305.27 319.93 310.72C321.12 313.72 320.69 319.13 317.65 320.82C313.79 322.94 309.06 321.54 305.2 323.52C300.89 325.74 299.2 331.69 299.83 336.19C299.952 337.954 300.655 339.628 301.83 340.95C308.65 347.77 313.33 328.95 315.92 325.85C319.44 321.62 324.59 322.38 328.27 325.95C334.99 332.45 332.82 343.76 330.53 351.7C327.32 362.81 321.81 376.01 312.53 383.37C309.21 385.99 303.69 389.37 303.27 394.05C303.27 394.05 284.58 454.2 285.7 487.23C285.781 489.904 286.431 492.529 287.608 494.931C288.784 497.334 290.459 499.457 292.522 501.161C294.584 502.864 296.986 504.109 299.567 504.81C302.148 505.512 304.849 505.655 307.49 505.23C317.49 503.6 327.55 502.07 337.49 500.23C344.55 498.94 351.58 497.67 358.64 496.45C390.03 491.11 421.37 486.96 453.1 486.82C454.633 486.823 456.116 486.27 457.274 485.265C458.432 484.259 459.187 482.869 459.4 481.35L460 477L463.95 452.59" stroke="black" stroke-width="3.97" stroke-miterlimit="10"/>
<path d="M706.09 351.78C709.82 343.84 707.09 332.71 702.84 324.3C699.56 317.77 702.18 307.3 710.48 306.13C710.77 306.13 711.06 306.08 711.33 306.08C719.5 305.68 724.1 316.29 726.69 322.61C729.701 330.129 731.255 338.151 731.27 346.25C731.347 353.077 730.842 359.899 729.76 366.64C728.84 372.24 725.87 377.8 726.3 383.56C726.64 388.4 729.5 392.98 731.51 397.34C740.18 416.01 750.33 434.04 757.29 453.34C759.944 460.568 762.02 467.994 763.5 475.55C768.726 502.996 766.832 531.324 758 557.83C753.18 572.17 744.7 586.29 732.48 595.49C731.213 596.443 729.917 597.343 728.59 598.19C712.75 608.45 692.41 611.49 673.88 611.09C654.2 610.67 634.4 606.65 615.51 601.28C612.21 600.333 608.923 599.333 605.65 598.28C602.21 597.19 598.8 596.08 595.39 594.92C591.82 593.68 588.25 592.43 584.71 591.11" stroke="black" stroke-width="3.97" stroke-miterlimit="10"/>
<path d="M711.33 306.08C708.71 297.7 704.33 287.99 696.63 286.91C694.627 286.599 692.582 287.091 690.94 288.28C688.656 290.015 687.147 292.58 686.74 295.42C685.44 303.09 688.61 311.55 691.36 318.56C698.03 335.56 692.63 346.49 692.63 346.49" stroke="black" stroke-width="3.97" stroke-miterlimit="10"/>
<path d="M690.94 288.28C690.38 287.46 689.75 286.7 689.12 285.95C685.89 282.33 679.81 279.08 674.91 281.01C665.21 284.84 669.65 298.2 674.47 308.33C676.37 312.33 678.35 315.92 679.47 318.14C686.47 331.49 681.32 340.14 681.32 340.14" stroke="black" stroke-width="3.97" stroke-miterlimit="10"/>
<path d="M674.47 308.33C671.995 307.794 669.455 307.622 666.93 307.82C661.27 308.33 654.74 310.6 652.54 316.05C651.35 319.05 651.78 324.46 654.82 326.15C658.68 328.27 663.41 326.86 667.27 328.85C671.58 331.07 673.27 337.02 672.64 341.52C672.518 343.284 671.814 344.958 670.64 346.28C663.82 353.1 659.14 334.28 656.55 331.18C653.03 326.94 647.88 327.71 644.2 331.28C636.95 338.28 640.1 352.38 643.14 360.85C646.45 370.1 650.73 379.85 657.58 387.05C668.98 399.05 670.22 418.05 673.24 433.46C674.48 439.84 675.67 446.26 676.62 452.69C678.52 465.14 679.62 477.69 678.62 490.27C678.366 493.724 677.4 497.087 675.784 500.15C674.168 503.213 671.937 505.909 669.23 508.069C666.523 510.228 663.399 511.805 660.053 512.7C656.708 513.595 653.214 513.789 649.79 513.27C605.07 506.42 518.52 492.51 518.52 492.51C517.812 492.388 517.169 492.02 516.705 491.472C516.24 490.923 515.984 490.229 515.98 489.51L515.56 451.32" stroke="black" stroke-width="3.97" stroke-miterlimit="10"/>
<path d="M444.82 394.59C442.99 414.26 449.82 436.5 462.62 451.16C486.5 478.47 506.62 451.16 506.62 451.16" stroke="black" stroke-width="3.97" stroke-miterlimit="10"/>
<path d="M525.45 400.69C524.75 399.39 525.16 397.04 524.56 395.39C523.785 393.229 522.394 391.341 520.56 389.96C516.74 387.17 511.69 387.34 507.66 384.88C504 382.59 501.109 379.257 499.36 375.31C498.8 374.05 498.36 372.13 497.29 371.22C495.46 369.69 494.4 372.38 493.29 373.44C491.706 374.916 489.715 375.883 487.576 376.214C485.436 376.546 483.246 376.227 481.29 375.3C479.49 374.41 478.24 372.62 476.36 371.91C474.48 371.2 474.36 374.33 474.08 375.43C473.901 376.371 473.512 377.26 472.943 378.03C472.373 378.801 471.637 379.433 470.79 379.88C467.48 381.51 462.96 380.44 460.08 378.51C459.887 378.377 459.66 378.301 459.426 378.292C459.191 378.282 458.959 378.34 458.756 378.457C458.553 378.574 458.387 378.747 458.278 378.954C458.169 379.162 458.121 379.396 458.14 379.63C458.59 392.63 443.19 394.96 443.19 394.96" stroke="black" stroke-width="3.97" stroke-miterlimit="10"/>
<path d="M466.55 423.2C474.249 423.2 480.49 416.959 480.49 409.26C480.49 401.561 474.249 395.32 466.55 395.32C458.851 395.32 452.61 401.561 452.61 409.26C452.61 416.959 458.851 423.2 466.55 423.2Z" stroke="black" stroke-width="3.97" stroke-miterlimit="10"/>
<path d="M502.68 421.96C510.379 421.96 516.62 415.719 516.62 408.02C516.62 400.321 510.379 394.08 502.68 394.08C494.981 394.08 488.74 400.321 488.74 408.02C488.74 415.719 494.981 421.96 502.68 421.96Z" stroke="black" stroke-width="3.97" stroke-miterlimit="10"/>
<path d="M460.72 410.66C460.72 410.66 466.34 417.11 472.12 410.66" stroke="black" stroke-width="3.97" stroke-miterlimit="10"/>
<path d="M497 410.66C497 410.66 502.62 417.11 508.41 410.66" stroke="black" stroke-width="3.97" stroke-miterlimit="10"/>
<path d="M486.29 441.41C489.002 441.41 491.2 439.212 491.2 436.5C491.2 433.788 489.002 431.59 486.29 431.59C483.578 431.59 481.38 433.788 481.38 436.5C481.38 439.212 483.578 441.41 486.29 441.41Z" stroke="black" stroke-width="3.97" stroke-miterlimit="10"/>
<path d="M480.49 409.26C480.49 409.26 483.65 404.11 488.74 408.02" stroke="black" stroke-width="3.97" stroke-miterlimit="10"/>
<path d="M474.08 388.57C474.08 388.57 459.61 377.51 447.48 387.94" stroke="black" stroke-width="3.97" stroke-miterlimit="10"/>
<path d="M516.42 382.77C516.42 382.77 499.23 376.77 490.93 390.42" stroke="black" stroke-width="3.97" stroke-miterlimit="10"/>
<path d="M456.3 442.77C456.267 445.088 455.505 447.336 454.123 449.197C452.741 451.058 450.809 452.438 448.6 453.14C441.46 455.25 433.9 449.89 430.8 443.7C429.67 441.561 429.154 439.15 429.31 436.736C429.465 434.321 430.285 431.997 431.68 430.02C431.805 429.822 431.888 429.601 431.924 429.37C431.96 429.139 431.949 428.903 431.891 428.677C431.833 428.45 431.729 428.238 431.586 428.053C431.444 427.868 431.265 427.714 431.06 427.6C429.672 426.765 428.524 425.585 427.729 424.174C426.933 422.763 426.517 421.17 426.52 419.55C426.524 418.877 426.597 418.207 426.74 417.55C426.786 417.307 426.78 417.057 426.724 416.816C426.668 416.576 426.562 416.349 426.413 416.152C426.264 415.954 426.076 415.79 425.861 415.669C425.645 415.548 425.406 415.474 425.16 415.45C424.432 415.384 423.71 415.263 423 415.09C421.011 414.384 419.214 413.222 417.753 411.698C416.293 410.173 415.21 408.328 414.59 406.31C411.59 396.55 419.14 386.13 428.53 383.78C425.73 378.86 422.02 374.89 420.53 369.18C419.04 363.47 419.9 357.57 424.23 353.31C430.98 346.7 442.43 348.76 447.87 356.01C444.2 350.51 445.57 343.01 449.7 338.19C454.7 332.37 464.45 331.1 471.28 334.06C474.53 335.49 476.62 338.45 478.84 341.06C483.28 328.5 500.84 328.42 510.18 335C515.04 338.47 518.18 344.76 516.63 350.5C515.81 353.41 517.32 355.15 520.36 353.81C523.4 352.47 526.15 350.63 529.83 351.03C542.57 352.38 551.62 369.83 542.04 379.85C541.04 380.91 538.79 382.02 538.29 383.45C537.2 386.45 543.97 387.23 545.77 388C561.59 394.64 558.12 427.22 538.77 427.88C539.35 430.65 540.67 433.72 540.46 436.58C540.04 442.63 535.75 445.91 529.93 446.1C530.073 447.484 529.794 448.878 529.13 450.101C528.466 451.323 527.449 452.316 526.21 452.95C523.09 454.61 517.98 454.22 515.63 451.33C511.87 446.79 515.73 440.84 517.63 436.5C520.43 430.15 521.81 423.3 523.08 416.5C524.243 410.866 524.991 405.154 525.32 399.41V399.17" stroke="black" stroke-width="3.97" stroke-miterlimit="10"/>
<path d="M50 863.88H253.23" stroke="black" stroke-width="3.97" stroke-miterlimit="10"/>
<path d="M764.62 863.88H950" stroke="black" stroke-width="3.97" stroke-miterlimit="10"/>
</svg>
